<svg class="svg-defs" xmlns="http://www.w3.org/2000/svg">
	<symbol viewBox="0 0 1304.5 136" id="square">
		<path d="M169.1,0c-11.6,0-20.9,9.3-20.9,20.9v78.5c0,11.6,9.3,20.9,20.9,20.9h27.9V136h26.2v-15.7h29.6c11.6,0,20.9-9.3,20.9-20.9
			V20.9c0-11.6-9.3-20.9-20.9-20.9H169.1z M174.4,20.9h71.5v76.7h-22.7V85.4h-26.2v12.2h-22.7V20.9z"/>
		<path d="M24.4,0C12.8,0,3.5,9.3,3.5,20.9v27.9c0,11.6,9.3,20.9,20.9,20.9h76.7h3.5v27.9h-3.5H54.1H33.1h-3.5H0v1.7
			c0,11.6,9.3,20.9,20.9,20.9h8.7h3.5h73.2c11.6,0,20.9-9.3,20.9-20.9V68c0-11.6-9.3-20.9-20.9-20.9h-5.2h-75V20.9h75v10.5h24.4V20.9
			c0-11.6-9.3-20.9-20.9-20.9H24.4z"/>
		<path d="M294.7,0v20.9v78.5c0,11.6,9.3,20.9,20.9,20.9h14h15.7h1.7h14h29.6c11.6,0,20.9-9.3,20.9-20.9V20.9V0h-15.7h-8.7h-1.7v97.7
			H361h-14h-1.7h-15.7h-8.7V0h-5.2H294.7z"/>
		<path d="M476.9,1.7l-60.2,118.6h26.2l13.3-26.2h67.6l13.3,26.2h26.2L503.1,1.7L502.2,0h-24.4L476.9,1.7z M490,27.5l23.2,45.7h-46.4
			L490,27.5z"/>
		<path d="M575.5,0v20.9v33.1v66.3h26.2V75h16.6l43.6,45.3h34.9L653.1,75h13.1c11.6,0,20.9-9.3,20.9-20.9V20.9
			c0-11.6-9.3-20.9-20.9-20.9h-64.5h-5.2H575.5z M601.6,20.9h52.3c3.9,0,7,3.1,7,7v19.2c0,3.9-3.1,7-7,7h-52.3V20.9z"/>
		<path d="M709.7,0v120.3h101.1V97.7h-75V20.9h75V0H709.7z"/>
		<rect x="758.6" y="47.1" width="43.6" height="22.7"/>
		<path d="M866.7,0v120.3h101.1V97.7h-75V20.9h75V0H866.7z"/>
		<rect x="915.5" y="47.1" width="43.6" height="22.7"/>
		<path d="M988.7,0v6.1v114.2h24.4V35.2l62.8,74.9l1.7,2.1l6.9,8.2h5.3h10.5h1.7V0h-1.7h-24.4v81l-62.8-74.9L1008,0H988.7z"/>
		<rect x="1123" y="0" width="27.9" height="120.3"/>
		<path d="M1164.8,0l52.4,58.1l-52.7,62.2h31.4l37.5-44.2l39.8,44.2h31.4l-56-62.2L1297.8,0h-31.4l-34.1,40.2L1196.1,0H1164.8z"/>
	</symbol>

	<symbol viewBox="0 0 1256.7 223.7" id="bafta">
		<path d="M790.4,144.9c-0.9-3.3-2.1-5.7-2.3-8.2c-0.8-11.8-1.3-23.7-1.9-35.5c-0.1-1.3-0.5-2.7-0.8-4c-0.6-0.1-1.1-0.3-1.7-0.4
			c-5.9,12-11.9,24-18.3,36.9c-8-12.9-14.1-25.5-22.3-36.7c-1.1,2-1.7,3.7-1.8,5.4c-0.5,6.5-0.3,13.1-1.3,19.5
			c-1.1,7.5,1.4,15.8-5.1,23c4.5,0,8.1,0,12.1,0c-7.1-10.4-1.3-20.8-2.6-30.9c0.5-0.2,1-0.3,1.5-0.5c5.8,9.9,11.6,19.9,17.4,29.8
			c0.5-0.1,1-0.1,1.5-0.2c4.9-9.9,9.7-19.7,14.6-29.6c1.2,5.3,1.7,10.5,1.7,15.6c0.1,5.1-0.3,10.3-0.6,15.8
			C783.3,144.9,786.8,144.9,790.4,144.9z"/>
		<path d="M456.3,185.6c2.3,15.9,2.1,25.6-0.7,32.3c3.9,0,7.6,0,10.9,0c-0.8-3.3-1.9-6.1-2.1-8.9c-0.7-10.8-1.1-21.6-1.7-32.4
			c-0.1-2.1-0.6-4.1-1-6.1c-0.6-0.1-1.2-0.2-1.8-0.3c-6,12-11.9,24-18.3,36.9c-7.5-13.1-14.4-25-21.3-37c-0.5,0.1-1,0.3-1.5,0.4
			c-0.3,1.2-0.9,2.3-1,3.5c-0.4,5-0.3,10.1-1.1,15.1c-1.5,9.6,1.3,19.9-5,28.9c3.9,0,7.5,0,11.2,0c-5.6-10.7-1.8-21.1-0.8-31.6
			c5.8,10.1,11.6,20.1,17.4,30.2c0.5,0,1,0,1.4,0.1C445.9,206.6,450.9,196.6,456.3,185.6z"/>
		<path d="M459,97.8c0.2,6.3,0.6,11.8,0.4,17.3c0,1.1-2.5,2.9-3.9,3c-6.8,0.3-13.6,0.1-20.4,0.2c-3,0-4.5-1.4-4.3-4.4
			c0.3-5.2,0.6-10.4,1-15.9c-2.9,0-6.5,0-9.4,0c2.8,15.8,2.1,31.1,0.6,46.7c2.7,0,5.9,0,7.8,0c0-6.6,0-12.5,0-18.3
			c0-2.8,1.7-3.9,4.4-3.9c6.7,0,13.3,0,20,0c3.2,0,4.7,1.4,4.6,4.5c-0.2,5.8-0.4,11.7-0.6,17.9c2.5,0,5.7,0,8.3,0
			c-1.2-16-2.2-31.4,0.8-47C465,97.8,461.4,97.8,459,97.8z"/>
		<path d="M585.5,217.9c0.1-1.9,0.4-3.7,0.4-5.4c0-8.5,0-16.9,0-25.4c0-5.4-1-11,4.5-15.7c-4.8,0-8.6,0-12,0
			c6.5,10.8,2.2,21.9,3.6,32.5c-0.5,0.2-1,0.4-1.5,0.7c-11-11.3-21.9-22.7-32.9-34c-0.5,0.2-0.9,0.5-1.4,0.7c-0.3,2-0.7,3.9-0.8,5.9
			c-0.1,8.6,0,17.2-0.1,25.8c0,5,1.1,10.3-3.5,14.8c4.5,0,8.2,0,10.9,0c-0.9-4.1-2.2-7.6-2.4-11.2c-0.4-5.5-0.1-11-0.1-16.5
			c0-1.4,0.2-2.7,0.3-4.1c0.5-0.3,1-0.5,1.5-0.8C563.1,196,574.1,206.8,585.5,217.9z"/>
		<path d="M1029.1,170.7c-0.5,0.2-1,0.4-1.5,0.6c-0.2,2.3-0.3,4.5-0.5,6.8c-1.2,13.3,2.8,26.9-2.7,40c3.5,0,7.2,0,10.8,0
			c-6-10.6-2.1-21.3-2.5-31.9c11.6,10.6,21.7,22.3,33.7,32.2c0.9-2.2,1.3-4.1,1.3-5.9c0.1-9,0-18.1,0-27.1c0-4.8-1-9.8,4.5-13.9
			c-5.1,0-8.8,0-12.6,0c-0.3,0.3-0.6,0.5-0.8,0.8c5.2,2.9,4.9,7.6,4.9,12.2c0,4,0,8,0,12c0,2.9,0,5.7,0,8.6
			c-0.4,0.1-0.8,0.1-1.1,0.2C1051.3,193.6,1040.2,182.1,1029.1,170.7z"/>
		<path d="M708.7,170.7c5,8.7,5.2,39.9,0.7,47.2c1.8,0.2,3.3,0.5,4.9,0.5c7.3,0.1,14.5,0.1,21.8,0.1c4.8,0,6.2-3.1,3.5-7.8
			c-4.6,5.5-10.8,3.7-16.6,3.5c-1.2,0-3.3-2.2-3.5-3.6c-0.5-3.5-0.6-7.2,0-10.6c0.2-1.5,2.4-3.7,3.7-3.7c4.4-0.1,8.9,0.6,13.6,1
			c0-2.1,0-5,0-7.9c-0.7,0.1-1.1,0-1.3,0.2c-4.4,3.8-9.8,3.3-14.2,1.5c-1.8-0.7-1.5-6.5-2.1-10c-0.1-0.4,0-0.9,0-1.3
			c-0.1-3.5,1.4-5.2,5.1-5.1c5.1,0.1,10.4-0.8,14.3,4.1c2.6-6.8,1.6-8.2-4.4-8.1c-5.8,0.1-11.6,0-17.4,0.1
			C714.5,170.7,712,170.7,708.7,170.7z"/>
		<path d="M821.2,212.2c-4.7,0.9-8.8,2.1-13.1,2.3c-8.5,0.4-8.5,0.1-8.5-8.6c0-1.8,0.1-3.6,0-5.3c-0.1-2.9,1.4-4.6,4.3-4.4
			c4.5,0.3,8.9,0.8,13.7,1.2c0-2.1,0-4.9,0-6.7c-4.8,0.5-9,1-13.3,1.4c-3.8,0.3-5.4-1.9-4.7-5.2c0.9-4.2-3.6-10.7,4.2-12
			c5.3-0.8,11-1.2,15.7,3.6c0.5-2.5,1-4.8,0.3-6.7c-0.3-0.8-3-1-4.6-1c-6.7-0.1-13.3,0-20,0c-1.7,0-3.4,0.3-5.2,0.5
			c3.6,8.7,3.7,39.6,0.1,46.6c1.9,0.2,3.6,0.5,5.2,0.6c6.8,0.1,13.6,0.1,20.5,0.1C821.3,218.6,822.4,216.9,821.2,212.2z"/>
		<path d="M862.7,171.2c2.3,5.4-5.5,30-10.8,35.4c-2.9-8.2-5.9-16.2-8.6-24.4c-1.1-3.5-1.6-7.2-2.4-10.9c-3.1,0-6.9,0-10.7,0
			c2.1,4.9,4,9.2,5.7,13.5c3.8,9.5,7.6,19,11.4,28.5c0.5,1.2,1,2.5,1.6,3.7c1.4,2.6,3,2.8,4.5,0.2c0.9-1.5,1.5-3.2,2.2-4.8
			c5.9-13.7,11.7-27.3,17.6-41.1C870.3,171.2,866.8,171.2,862.7,171.2z"/>
		<path d="M725.5,137.2c-4.5,5.7-10.7,4.1-16.4,4.2c-3.1,0.1-4.8-1.1-4.7-4.4c0.1-3.4,0.1-6.8,0-10.2c-0.1-3.3,1.6-4.6,4.7-4.4
			c4.4,0.4,8.8,1,13.5,1.5c0-2,0-4.6,0-7.8c-1.2,0.5-1.9,0.7-2.5,1.1c-4.5,2.8-10,3.2-13.9,0.8c-2-1.3-1.1-7.2-1.5-11.1
			c0-0.4,0.2-0.9,0.2-1.3c0.2-3.3,1.8-4.8,5.2-4.6c2.7,0.2,5.4-0.2,7.9,0.5c2.4,0.6,4.5,2.3,7.3,3.9c0.1-2.3,0.6-4.1,0.2-5.7
			c-0.2-1-1.7-2.5-2.6-2.5c-7.7,0-15.4,0.2-23.1,0.5c-1.5,0-3,0.3-4.8,0.5c3.7,7.5,3.8,38.6,0.2,46.6c1.8,0.2,3.5,0.6,5.2,0.6
			c6.8,0.1,13.6,0.1,20.4,0.1C726.2,145.3,727.5,143.2,725.5,137.2z"/>
		<path d="M584.4,136.5c-13.4,8-22.3,7.7-29.8-0.8c-7.3-8.1-8.2-20.8-1.5-28.6c2.6-2.9,6.5-5.4,10.2-6.5c7.4-2.1,14.3-0.1,19.6,6.4
			c1.9-6,1.2-8.1-3.6-8.8c-5.6-0.9-11.5-1.7-17.1-1.1c-12.7,1.3-21.1,11.2-21.3,23.9c-0.3,12.1,7.7,22.3,19.9,24.2
			c6,0.9,12.4,0.3,18.5-0.3C583.6,144.5,584.9,141.9,584.4,136.5z"/>
		<path d="M408.5,105.8c1.8-7.1,1-8.4-5-9c-1.3-0.1-2.7-0.6-4-0.3c-4.3,0.9-9.1,1.1-12.6,3.2c-8.3,5-7.4,17.9,1.3,22.5
			c3.9,2.1,8.2,3.4,12.2,5.3c3.2,1.6,5.2,4.6,4.2,8c-0.7,2.4-2.8,5.2-5,6.1c-4.3,1.7-8.8,0.9-12.5-2.3c-1-0.9-2.1-1.9-3.2-2.9
			c-2.4,5.2-1.5,8,3.2,8.6c4.6,0.6,9.4,0.8,14,0.2c4.5-0.6,7.6-3.7,9.1-8.2c2.3-7.1-0.2-12.9-7-16.2c-3.9-1.9-8-3.3-11.7-5.4
			c-3.2-1.8-4.8-5-4-8.7c0.8-3.7,3.6-5.8,7.2-6.4c4-0.7,7.7-0.1,10.7,3C406.3,104,407.2,104.7,408.5,105.8z"/>
		<path d="M932.3,179.2c1.7-6.9,1-8.3-4.8-8.9c-4.1-0.4-8.4-0.3-12.3,0.5c-6.2,1.4-9.4,5.6-10,11.6c-0.6,6.3,1.9,10.9,7.8,13.6
			c3.1,1.5,6.4,2.4,9.5,3.8c5.1,2.4,7.2,6.4,5.7,10.6c-1.5,4.2-6.4,6.5-11.5,4.9c-2.3-0.7-4.4-2.3-6.5-3.6c-0.9-0.6-1.7-1.3-2.6-2.1
			c-2.3,5.1-1.3,7.8,3.3,8.7c3.5,0.6,7.1,1,10.6,0.9c7.2-0.3,11.8-4.5,13.1-11.1c1.2-6.3-1.6-11.3-8.4-14.4
			c-3.4-1.6-6.9-2.8-10.1-4.5c-3.3-1.8-5.4-4.8-4.7-8.8c0.7-4.2,3.9-6.7,7.8-6.7c3.3,0,6.7,1.6,9.9,2.7
			C930.1,176.7,930.9,177.9,932.3,179.2z"/>
		<path d="M1254.1,179c2.6-5.4,1.6-7.8-3.5-8.6c-2.8-0.4-5.6-0.6-8.4-0.5c-8,0.2-13.5,4.6-14.6,11.1c-1.3,8.1,1.6,12.7,9.9,16.1
			c3.3,1.3,6.6,2.6,9.7,4.3c3,1.7,4.3,5,3.1,8c-0.9,2.3-3.2,4.7-5.4,5.7c-4.3,2-8.4,0.2-11.9-2.6c-1.1-0.9-2-1.9-3.2-3
			c-2.4,5.6-1.4,7.9,3.6,8.8c3,0.6,6.2,0.9,9.3,0.9c7.4-0.1,12.6-4.2,13.8-10.3c1.4-7.6-1.1-12.2-8.6-15.6
			c-3.4-1.5-6.9-2.8-10.1-4.6c-3.3-1.8-4.7-4.9-4.2-8.6c0.6-3.9,3.3-6.4,6.9-6.5c3.4-0.1,7,1.3,10.4,2.4
			C1252,176.6,1252.9,178,1254.1,179z"/>
		<path d="M1220.8,177.5c2.4-5.1,1.2-7-5.2-6.9c-10.5,0.1-21.1,0-31.6,0.1c-1.7,0-4.6,0.5-4.8,1.3c-0.6,2.1,0.1,4.5,0.3,7.8
			c1.9-1.7,2.6-2.8,3.4-3c3.8-0.7,7.7-1.5,11.5-1.1c0.9,0.1,1.9,4.5,1.9,7c0.3,7.7,0.1,15.4,0.1,23.1c0,4.2,0.8,8.7-3.3,12.2
			c4.5,0,9,0,13.4,0c-1.3-2.8-3.2-5.1-3.3-7.5c-0.1-10.5,0.3-21,0.5-31.6c0.1-2.8,1.6-4.3,4.3-3.9
			C1212.1,175.6,1216.1,176.6,1220.8,177.5z"/>
		<path d="M308.8,105.7c1.1-0.9,1.8-1.9,2.6-2.1c3.8-0.6,7.7-1.6,11.5-1.2c1,0.1,2,4.7,2.1,7.2c0.3,7.6,0.2,15.1,0.2,22.7
			c0,4.2,0.9,8.7-3.4,12.3c4.5,0,9.1,0,13.6,0c-1.3-2.8-3.2-4.9-3.2-7.1c-0.3-10.5-0.1-21.1-0.1-31.6c0-3,1.6-4.5,4.4-4.2
			c4.2,0.5,8.3,1.5,12.7,2.3c2.2-5.4,1.1-7.1-5.3-7.1c-10.2,0.1-20.4,0.1-30.7,0C306.9,96.9,305.7,99,308.8,105.7z"/>
		<path d="M809.5,144.7c3.9,0,7.6,0,11.1,0c-2.1-9-3.8-17.8,0.3-25.6c3.8-7.5,9.7-13.9,14.9-21.2c-3.4,0-6.8,0-9.8,0
			c0.4,8.6-6.1,13.2-9.8,19.6c-3.5-6.4-10.2-11.1-8.7-19.3c-4,0-7.9,0-12.5,0C806,112.2,816.9,125.3,809.5,144.7z"/>
		<path d="M660.5,177.5c4.4-0.9,8.3-2,12.3-2.6c3.6-0.5,5,1.4,5,5c-0.1,8.2,0,16.3,0,24.5c0,4.6,1.2,9.6-3.4,13.5c4.5,0,9,0,13.5,0
			c-1.2-2.5-3-4.5-3.1-6.6c-0.3-10.8-0.1-21.7-0.1-32.5c0-2.8,1.5-4.3,4.2-3.9c4.1,0.6,8.2,1.6,12.8,2.5c1.7-3.3,1.2-7-1.9-7
			c-13-0.1-26,0-39.2,0C660.5,173.3,660.5,175.9,660.5,177.5z"/>
		<path d="M282,188.9c-1.3,0.7-1.8,1.3-2.4,1.4c-3.5,0.6-7.2,1.6-10.5,1.1c-1-0.2-1.6-4.7-2-7.3c-0.3-1.7-0.5-3.8,0.1-5.3
			c0.7-1.6,2.4-3.8,3.7-3.8c4,0,8.1,0.9,12.4,1.5c1.6-4.1,0.7-5.6-4.4-5.7c-4.3-0.1-8.6,0-12.9,0c-3,0-6,0-8.4,0
			c3.9,16.3,3.4,31.6,1.2,47.2c3,0,6.5,0,9,0c-0.3-6.1-0.5-11.7-0.7-17.2c-0.1-3.2,1.5-4.9,4.6-4.5c3.5,0.4,7,1.3,10.5,2
			C282,195.4,282,192.4,282,188.9z"/>
		<path d="M325.2,218.1c-4.5-6.5-2.8-12.9-2.7-19c0-1,2.4-2.9,3.6-2.8c3.8,0.1,7.6,0.9,11.4,1.4c0-2.3,0-5.2,0-8.6
			c-1.2,0.6-1.7,1.1-2.2,1.1c-3.8,0.5-7.7,1.3-11.4,0.9c-0.8-0.1-1.2-4.9-1.6-7.5c-0.2-1.5,0-3,0-4.4c-0.1-2.9,1.3-4.6,4.3-4.4
			c4,0.4,8.1,1.1,12.5,1.7c1.7-3.8,0.7-5.7-4.2-5.7c-6.2-0.1-12.5-0.1-18.7,0c-1.3,0-2.7,0.4-4.3,0.7c5.8,7.6,3.3,15.7,3.6,23.3
			c0.3,7.7-0.2,15.4-0.4,23.4C317.5,218.1,320.9,218.1,325.2,218.1z"/>
		<path d="M405.2,209c-5,7.1-11.7,5.5-17.9,5.5c-2.6,0-4.5-1.2-4.4-3.9c0.4-13-1.9-26.2,2-39.3c-3.7,0-7.5,0-11.8,0
			c4.8,7.8,2.6,15.8,2.9,23.5c0.3,7.7-0.3,15.4-0.4,23.5c-0.5-0.2-0.1,0.1,0.4,0.1c7.6,0.1,15.1,0.1,22.7,0.2
			C405.2,218.6,406.4,217.2,405.2,209z"/>
		<path d="M752.8,218.2c0.9,0.1,2.6,0.4,4.3,0.4c6.7,0.1,13.4,0,20,0c5.5,0,7.2-2.4,5.3-8.9c-4.6,6.1-11,4.8-17.2,4.9
			c-3.4,0-4.8-1.5-4.8-4.9c0.1-6.1-0.2-12.2,0-18.2c0.2-6.7,0.7-13.3,1.1-20.2c-2.7,0-6.5,0-9.3,0
			C754.7,187,754.2,202.2,752.8,218.2z"/>
		<path d="M368.7,144.8c-1.5-16-2.1-31.3,1.1-47c-3.4,0-7.3,0-11.4,0c3.2,6.4,3.8,38.5,1,47C362.8,144.8,366.2,144.8,368.7,144.8z"
			/>
		<path d="M298,144.8c-0.9-2.9-2.1-5.1-2.1-7.3c-0.1-9.5,0.1-18.9,0.5-28.4c0.1-3.7,0.9-7.3,1.5-11.4c-3.2,0-7.1,0-10.4,0
			c3.1,15.8,2.7,31.1,0.8,47C291.1,144.8,294.3,144.8,298,144.8z"/>
		<path d="M361.9,171.2c-3.1,0-6.9,0-10,0c1.4,15.8,3.4,31.2,0.1,46.7c3.1,0,6.5,0,9.1,0c-0.5-4.1-1.3-7.7-1.4-11.3
			c0-7.8,0.2-15.7,0.6-23.5C360.5,179.2,361.3,175.4,361.9,171.2z"/>
		<path d="M892.8,218c-2.5-16-0.9-31.3,0.4-46.8c-2.8,0-6.6,0-9.6,0c1.2,15.8,3.1,31,0.4,46.8C886.7,218,890.1,218,892.8,218z"/>
		<path d="M955.8,218.1c-1.8-16-2.2-31.2,0.4-46.8c-3.1,0-6.9,0-10.9,0c3,6.4,3.6,37.4,1,46.8C949.9,218.1,953.3,218.1,955.8,218.1z
			"/>
		<path d="M666.8,98.1c-7.8-1.3-15.9-0.6-23.8-0.8c-0.5,0-1,0.5-0.7,0.3c2.5,16.1,2.7,31.3-0.1,47c0.1,0,0.8,0.6,1.6,0.6
			c8-0.2,16,0.2,23.9-0.9c10.1-1.4,16.7-8.3,18.4-17.4C688.7,113.5,680.4,100.3,666.8,98.1z M675.7,134c-3.4,5.9-15.4,10.2-21.8,7.7
			c-1.5-0.6-3-2.9-3.1-4.7c-0.4-5.1-0.1-10.2-0.1-15.2c0.1,0,0.1,0,0.2,0c0-5,0-11,0-16.4c0-3.5,1.9-5.2,5.3-5.3
			c8.3-0.1,15.2,2.7,19.4,10.1C680,118.1,680.2,126.2,675.7,134z"/>
		<path d="M272.3,136.1c-2.4-2.7-4.5-5.5-7-8.1c-2.4-2.5-2.4-4.1,0.6-6.3c2.4-1.7,4.6-4.4,5.7-7.1c2.3-5.5-0.3-12.1-5.5-15
			c-7.8-4.4-16.1-2.7-24.9-2.2c4.4,8.2,4.8,39.5,0.9,47.5c4.1,0,7.7,0,11.6,0c-3-6-2.5-12.6-1.3-19.6c1.9,1.3,3.3,1.9,4.2,2.9
			c3.7,4.4,7.5,8.8,10.9,13.5c2.8,3.9,6.8,4.9,11.9,2.1C277,141.3,274.6,138.7,272.3,136.1z M257.2,121.2c-3.8,1-5.3,0.4-5.5-3.5
			c-0.1-2.1,0-3.8,0-5.8c0,0,0,0,0.1,0c0-2-0.1-4.3,0-6.2c0.3-4.9,2.1-6.2,6.6-4.6c4.4,1.6,7.3,5.9,7,10.7
			C264.9,116.5,261.9,120,257.2,121.2z"/>
		<path d="M619.6,170.8c-5.9-0.2-11.8-0.1-17.8,0c-1.1,0-2.2,0.4-2.3,0.4c1.4,15.7,1.7,30.9-0.4,47.4c10.5-0.9,21.8,2.3,32.5-3.1
			c5.3-2.7,9-6.7,10.8-12.4C647.4,187.4,636.1,171.4,619.6,170.8z M632.4,207.7c-3.7,5.9-15.5,9.8-22,7.2c-1.4-0.6-2.8-3-3-4.7
			c-0.4-4-0.1-8-0.1-12c-0.1,0-0.2,0-0.3,0c0.4-6.5,0.8-13,1-19.5c0.1-3.8,2.1-5.5,5.6-5.3c8,0.3,14.9,2.8,19,10.3
			C636.9,191.6,637.4,199.8,632.4,207.7z"/>
		<path d="M1161.7,197.7c2.2-1.5,3.8-2.5,5.3-3.7c6.4-5.1,6.4-14.4,0.4-19.9c-4.3-4-19.7-5.6-26.1-1.8c3.2,5.2,3.9,35.6,0.9,46.6
			c3.5,0,7,0,9.5,0c-0.5-7-0.9-13.1-1.4-19.2c0.5-0.2,1.1-0.6,1.6-0.8c1.3,0.8,2.9,1.3,3.8,2.5c3.8,4.4,7.6,8.7,11.1,13.3
			c3.1,4.1,7,5.2,11.8,2.5C1173.1,210.8,1167.5,204.4,1161.7,197.7z M1155.3,194.7c-2.8,0.2-4.7-0.7-4.6-3.8
			c0.1-4.7,0.2-9.5,0.9-14.1c0.2-1.1,2.5-2.8,3.9-2.8c5.4,0.1,9,4.6,9,10.6C1164.3,190.2,1160.6,194.3,1155.3,194.7z"/>
		<path d="M225.2,169.8c-14.5-0.1-25.2,10.2-25.4,24.5c-0.2,14.1,10.4,24.9,24.5,25.1c14.4,0.2,25.2-10.3,25.4-24.6
			C249.9,180.7,239.3,169.9,225.2,169.8z M240.4,204.3c-2.1,7.5-8.4,11.9-15.9,11.8c-7.4-0.1-13.2-4.5-15.5-11.8
			c-1.8-5.9-2-11.9-0.4-18c2.1-8.1,8.2-13,15.9-13.1c8-0.1,14,4.4,16.1,12.6c0.8,2.8,0.9,5.8,1.3,9.1
			C241.4,197.9,241.3,201.2,240.4,204.3z"/>
		<path d="M991.5,169.8c-14.4-0.1-24.9,10.2-25,24.4c-0.1,14.6,10.3,25.2,24.7,25.2c14.3,0,24.8-10.4,24.8-24.7
			C1016.1,180.4,1005.8,169.9,991.5,169.8z M995.2,215.5c-8,2.1-15.9-1.7-18.9-9.4c-3-7.5-3-15.1-0.2-22.6
			c2.5-6.7,8.1-10.3,15.1-10.4c7,0,12.8,3.7,15.1,10.3c1.3,3.6,1.7,7.4,2.5,11.2C1008.3,206.3,1003.9,213.3,995.2,215.5z"/>
		<path d="M224.1,120.5c1.6-1.5,2.8-2.5,3.8-3.6c5-5.5,3.4-14.6-3.1-17.9c-6.9-3.4-14.1-1.1-21.9-1.6c4.8,8.1,2.7,16.1,2.7,23.7
			c0,7.8,2.2,15.9-3,24.6c7.9-0.6,14.7-0.7,21.3-1.7c4.3-0.7,6.7-4.1,7.6-8.4C232.9,129,229.9,124.3,224.1,120.5z M212.7,105.2
			c0.3-1.6,0.8-4,1.9-4.4c1.5-0.6,3.9-0.2,5.3,0.7c3.6,2.2,4.6,6,4.1,10c-0.4,3.6-2.5,5.8-6.1,6.8c-4,1.1-5.1,0.3-5.3-3.8
			c-0.1-1.6,0-3.2,0-4.9C212.6,108.1,212.4,106.6,212.7,105.2z M225.1,133.2c-0.6,5.1-4,8.8-8.5,8.7c-1.3,0-3.4-1.2-3.8-2.5
			c-0.6-2.2-0.2-4.5-0.2-6.5c0,0-0.1,0-0.1,0c0-2,0-3.5,0-5c0.1-4.6,2.3-6.3,6.6-4.8C223.2,124.6,225.7,128.6,225.1,133.2z"/>
		<path d="M536.8,144.9c-2.3-4-4.6-9.4-6.3-13.9c-3.7-9.8-7.1-19.9-10.7-29.7c-0.6-1.5-1.5-3-2.8-5.4c-1.4,2.7-2.4,4.8-3.1,6.5
			c-5.8,14.3-11.6,28.6-17.5,43.6c2.5,0,5.8,0,9.3,0c-0.1-2-0.1-2-0.3-2.4c-3-6.7-0.6-11,6.5-11.1c2.1,0,4.1-0.2,6.2-0.1
			c5.5,0.1,7.9,2.2,8.3,7.6c0.1,1.5-0.5,3.1-0.9,5.1C529.6,144.9,533.5,144.9,536.8,144.9z M518.5,127.9c-11.8,0.3-10.9,0.1-7-9.1
			c1.2-2.8,2.4-5.6,3.5-8.4c0.4,0,0.8,0.1,1.2,0.1c1.6,4.6,3.3,9.1,4.9,13.7C522,126.6,521,127.9,518.5,127.9z"/>
		<path d="M632.1,144.9c-2.2-4-4.5-9.4-6.2-14c-3.7-9.7-7-19.6-10.5-29.4c-0.6-1.6-1.6-3.2-2.5-4.7c-0.4,0-0.9,0.6-1.3,0.6
			c-6.6,16-13.3,32.5-19.9,48.5c2.8,0,6,0,9.8,0c-4-8-0.9-14.7,7.2-13.3c1.6,0.3,3.3-0.3,4.9-0.2c5.6,0.1,7.5,1.6,8.2,7.1
			c0.2,1.6-0.4,3.4-0.7,5.4C625,144.9,628.8,144.9,632.1,144.9z M616.7,127.2c-4,0-8-0.1-12-0.4c-0.1,0-0.3-1.7,0-2.4
			c1.8-4.7,3.7-9.3,5.6-13.9c0.4,0,0.9-0.1,1.3-0.1c1.8,5,3.6,9.9,5.4,14.9C617.2,125.8,616.8,127.2,616.7,127.2z"/>
		<path d="M534,218.9c-2.4-6-4.9-11.3-7-16.7c-3.4-8.9-6.4-18.1-9.6-27c-0.6-1.7-1.6-3.3-2.9-5.8c-1.3,2-2.1,3.5-2.6,4.6
			c-6.5,14.7-10.8,30.8-18.9,44.8c3.3,0,6.6,0,10.2,0c-3.7-9-1.1-13.1,7.7-13.2c1.5,0,3-0.3,4.4-0.3c5.6,0.1,7.8,2.3,8.4,7.8
			c0.2,1.5-0.4,2.7-0.8,5.7C527,218.9,530.8,218.9,534,218.9z M518.7,198.4c-0.5,0.8-1,2.3-1.5,2.3c-3.4,0.1-6.7-0.1-10.1-0.4
			c-0.2,0-0.6-2.2-0.2-3.1c1.7-4.6,3.6-9,5.4-13.5c0.4-0.1,0.8-0.1,1.2-0.2c1.7,4.7,3.3,9.4,5,14.1
			C518.6,197.8,518.8,198.2,518.7,198.4z"/>
		<path d="M1120.3,218.9c4.1,0,7.9,0,11.2,0c-2.2-5-4.5-9.8-6.2-14.4c-3.6-9.6-6.9-19.5-10.4-29.1c-0.6-1.7-1.6-3.4-3-5.9
			c-1.3,2.1-2.2,3.6-2.7,4.8c-6.4,14.5-10.7,30.6-18.9,44.6c3.5,0,6.7,0,10.3,0c-0.3-1-0.4-2.1-0.6-2.6c-2.6-6.4,0-10.8,6.7-10.9
			c2.2,0,4.4-0.1,6.7-0.1c5.4,0.1,8.5,4.3,7.7,9.7C1120.9,216,1120.6,216.9,1120.3,218.9z M1114.3,200.8c-3.5,0.3-7,0.1-11.5,0.1
			c2.7-6.6,4.9-12,7.1-17.4c0.4,0,0.8,0,1.2,0c1.7,4.8,3.5,9.6,5,14.5C1116.2,198.8,1115,200.7,1114.3,200.8z"/>
	</g>
	<path d="M149.3,16.9c-1.2,1.1-5.4-0.9-8.2,3.3c10-3.2,14.1,5.6,12.2,11.6c-0.3,0.8,0.5,0.7,1.1,0.2c1.4-1.3,3.5-5.5,3.8-8.5
		c0.4-4.3-2.8-10.9-8.4-12.7c-3.4-1.1-6.5-0.8-9.6,1.4C147.6,12.1,150.5,15.8,149.3,16.9z M169.4,28.8c2.8,6.6,3.4,14.7,2.6,19.7
		c-0.5,3.1,0.7,7.1-1.2,11.6c-1.8,4.5-3.3,4.5-4.1,5.2c2.9-5.7,4.9-15.2,0.7-17.8c-3.3-2.1-4.7-4.6-3.2-12.3
		c0.9,5.1,2.7,7.7,5.5,8.5c-4.3-6.8,1-16.8-10.3-26.9c5.3,10.2,0.8,19.2-3.1,22.8c-7.2,6.6-15,0.9-18.1,11.8c7.3-5.3,9,1.4,20.4-8.8
		c1.4,1.9,3.4,4.1,4.8,8.4c2.2,6.7,0.6,17.4,0.9,21.3c0.4,6.4-8.6,2.3-17.5-0.2c-5.6-1.6-12.3-2.2-17.3-1.9c-5.5,0.3-9.6,2.6-10,7.6
		c-0.3,3.8,1.8,12.6,2.5,17.3c1,6.2,2,12.8,5.6,32.2c1.5-8.2-1.2-18.2-0.4-19.8c0.8-1.7,3-0.9,5.5,0.5c4.6,2.6,10.2,4.1,12,1.9
		c0.9-1-1.7-1.7-3.8-2.8c-5.2-2.8-5.9-6.4-0.6-3.8c4.2,2.1,10.5,3.8,14.1-1.8c0.7-1.2,1.4-0.9,1.4,0.2c0,1.7-0.5,2.4-1,3.2
		c-0.7,1.4-1,2.4,0.9,1.1c3.3-2.1,3.1-3.8,3.9-3.9c0.8-0.1,1.2,0.8,1.6,2.2c0.7,2.2,0.9,12.7,0.2,19c-0.5,3.7-1.6,8.2-3.8,15.8
		c-2.4,8.2-7.5,17.1-10,28.5c-2.4,11-6.3,26.4-9.9,34.6c-7,16-19.1,13.8-19.7,13.8c-17.3-0.6-18.4,5.6-28.4-1.2
		c-3.2-2.2-6-6.2-6.5-17c-0.2-5.4-5.7-8-4.3-10.9c2.6-5.6,16,0.1,22.3,1.2c6.4,1.1,16.2,0.4,20.7-1.2c4.2-1.6,4.8-2.9,5.7-4.7
		c2.1-4.1-6.3-3.4-10.5-3.2c-4.6,0.2-9.1,1.3-12.6,0.4c-6.4-1.7-2.4-11.4,2-11.1c6.3,0.5,9.7,0.6,15.1-0.1c3-0.4,6.2-0.1,9,1.8
		c1.9,1.3,2.9,2.9,3.9,4.3c0.8,1.1,2.3,2.5,4.2-0.1c2.3-3,2.6-8.5,2-11.2c-0.4-1.6-1.3-2-1.8-1c-1.4,2.6-2.8,3.2-4.9,3.4
		c-4.6,0.3-6.2-3.4-10.8-3.7c-0.5,0-1.2,0.5-1.6,0.7c-1.5,0.9-2.2,1.7-5.2,1.7c-3.9,0-5.7-3-11.3-2.5c-8.5,0.8-10.7,2.9-16.1,3.7
		c-4.3,0.6-6.7,0-6.2-1.7c0.5-1.7-3.6-4.8-8.3-0.9c-3.5,3-6.1,6.5-4.1,14.4c1.2,5,0.7,9.2-4.6,8.6c-5.3-0.6-7.2-9.2-7.2-17.6
		c0-8.4-9.1-25.5-10.4-31.4c-1.2-5.9-1.1-19.2,12-15.3c10.1,3.1,10.8-1.4,16.8,3.3c6.4,4.9,9.3,10.3,7.4,17.7
		c-0.7,2.9-1.2,6.9,3.2,8.7c3,1.3,8.1-1.2,13,1.6c5,2.8,3.6,4.3,8,7.1c1.8,1.2,4.9,1.7,7.6,1.4c3.6-0.4,5.8-3.3,7.3-8.3
		c1.2-3.8,2.9-2.6,4.9-6.1c1.6-2.6,5.7-1.8,4.8-9.1c-0.6,3.6-3,5-2.8,4.4c0.8-4-2.4,0.5-2.7,0.9c-2.1,3.2-4.3,5.1-6.5,5.3
		c2.7-1.9,4.1-4.6,4.1-6.8c-2.5,1-6.7,2-8.3-2.3c-3.5-9.2-3-29.1-7.3-45.9c2.1,24-0.9,26.6,0.8,44c0.1,1.3-0.5,4.1-3.8,3.3
		c-2.7-0.6-4.9-0.5-8.2,0.5c-7.3,2.3-10.4-2.6-4.3-10.1c2.1-5.2,0.3-12-2.8-17.5c-3.1-5.6-1.2-13.6,5.4-19.6
		c4.3-3.9,2.8-10.4,4.7-13.3c2.2-3.3,4.9-0.5,7.4,4.9c-0.2-6.8-1.3-12.7-5.4-14.1c-4.3-1.5-6.7-1.9-12.7-1.6
		c-5.8,0.3-17.6,3-21.2,3.8c-2.6,0.5-3.8-1.6-3.2-3.1c6.3-17.2,0.5-20.5,16.4-31.9c8.5-6.1,17.6-9.2,21.7-9.2
		c8.2,0,9.3,10.6,26.2,5.9c8.3-2.3,14.5-4.8,14.3,0.1c0,1.3-1.7,3.7-2.5,6.2c0.7-1.5,2.9-2.6,5.4-5.2c3.6-3.8,1-9-0.7-9.6
		c-5-1.7-6.5,0-11.4,2.8c-5,2.8-16,7.1-21.4-9.5c2,2.3,4.1,6,12.8,7c6.5,0.8,10.5-4.9,10.5-4.9s-9.3,1.4-12.5-2.8
		c-2.7-3.5-1-3.2,4.2-2.9c5.3,0.3,7.5-3.9,7.5-3.9s-6.8,2.9-14.2-3.7c-1-0.9-0.4-2.2,1.5-1.8c2.7,0.7,17-0.1,21.2-1.6
		c-13.5-0.2-18-1.3-21.5-1.8c-5.1-0.6-13.1-1.8-14.8-2.2c0.5,8.8-6.7,40.9-38.4,25.4c22,5.7,31.7-12.1,32.9-22.8
		c0.3-2.9-3.6-2.9-5,0.9c-1.6,4.7-4,8.9-6.7,11.9c1.8-7.3-0.2-12.2-0.5-12.9c-0.2-0.5-0.8-0.6-1.3,0.3c-1.9,3.6-5.6,7.3-9.9,7.7
		c-6.8,0.8-8.9-1.2-13.7-1.6c-8.1-0.7-16.2,0.6-16.9,9.8c7.2-13.1,22.2-3.9,28.9-3.3c4.8,0.4,8.2-1.9,9.8-3.7
		c-5.4,11.9-18.8,6.2-19.5,6c-2.5-0.4-5-0.5-7.5,0.1c-11.2,2.9-11.5,13.8-11.5,13.8s-3.1-3.9-1.4-10.7c-4.7-5-0.3-13.3,7.1-15.5
		c10.2-3,13.3,1.5,20.8,0.6c7.4-0.9,6.9-7.5,21.7-7.4c-2.9-0.6-8.9-0.4-15.7,0.9C72.3,3,48-1.6,36.7,6.6c-13.6,9.7-7,29.2,2.4,32.9
		C36.6,37.4,21,7.6,51.6,4.5c-5,1.7-9.9,4.3-11.8,8.2c-3.7,7.8,1.1,25.7,17.9,34c-5.1,6.7-13.8-2-16.3-3.9
		c-7.8,2.1-16.4-9.2-16.1-19.5c-2.3,10.2,1.9,15.5,5.5,18.5c-7,0.7-21.1-21.3,4.2-36.6c-12,3.2-37.4,20.8-34.9,56
		c1.1,14.8,2.5,19.7,2,27.7c-0.5,8-2.2,16-0.1,25.7c1.9,8.4,3.4,11.6,4.6,14.3c1.2,2.6,2.9,5.6,4.5,15.5c0.8,4.9,9.3,48,20.9,66.1
		c7,10.9,12.6,11.8,29.1,14.3c16.5,2.5,41.2,1.8,55.7-1.3c1.8-0.4,15.4-1.8,22.2-13.5c5.8-9.9,9.5-28,13.6-40.6
		c2-5.8,5.2-15.6,7.2-23.9c2.9-11.8,3.5-15.1,3.5-27.2c0,0.1-0.4-9.5-0.6-12.9c-0.2-3.4-0.3-11,0.9-15.4c1-3.9,3.9-7.5,3.9-13.5
		c6.8-4.5,5.7-21.6,5.9-27.9C177.9,33.3,170.6,29.4,169.4,28.8z M159.6,91.7c-1.3-3.5-6.8-5.2-7-3.8c5.1,2.1,4.3,5.1,0.6,12.6
		c-1.6,3.2-5.1,3.9-7,1.3c-1.4-1.9,0-4.6-1.2-7.2c-0.7-1.4-1.5-1.6-1.8-3.1c-0.7-3.2,7.1-3.1,7-4.1c-0.1-0.8-8.8-0.8-17.2,4.6
		c-0.4,0.2-0.4-0.3,1.2-1.7c2.8-2.5,6.7-4,10.1-4.9c2.6-0.7,0-1.6,0.6-2.6c0.5-0.9,10.7-1.6,14.4,3.7
		C160.9,89.3,159.6,91.7,159.6,91.7z M83.5,170.7c1.3-2,2.7-1.8,5.1-2c2-0.1,2.9-0.3,5-0.5c1.8-0.1,2.5,1.6,0.6,3.6
		c-2,2.1-2,2.9-4.7,2.9C86.8,174.7,82.2,172.7,83.5,170.7z M113.3,145.9c0.9,0.6,2,3-0.7,1.7c-3.1-2.1-6-5-12.9-4.6
		C107.1,141.3,110.6,144,113.3,145.9z M62.5,110.4c-3.3,1-3.7,0-5.4,0c-0.7,0-0.5,1,1.1,1.7c2.8,1.2,3.9,2.4,2.6,3
		c-4.2,2-9.9-1.1-13.5-5.5c-3.4-4.2-0.3-4.8,3.1-2.9c1.6,0.9,4,1,0.1-3.4c-1.6-1.8-2.6-4-1.1-4.6c1.4,3.3,7.8,7.2,12.6,9.2
		C63.5,108.3,65.4,109.5,62.5,110.4z M69.5,84.8c1.3-1,5-1.7,8.1-1.5c1.2,0.1,3.2,0.1,6.6,3c2.3,2,2.8,3.9,3,5
		c0,0.4-0.3,0.6-0.5,0.4c-0.8-0.7-2.2-1.8-3.7-2.9c-1.6-1.2-2.8-2.4-4.8-2.9c-2.5-0.7-4.7-0.3-6.2-0.2
		C70.6,85.6,67.5,86.1,69.5,84.8z M68.7,87.7c5-0.6,9.7,1.3,12.2,2.7c2.5,1.4,6.1,4.7,4.7,7.1c-1.4,2.5-4.7,4.1-10.3,5.9
		c-5.6,1.9-10.8,1.3-15.5-1c-2.9-1.4-4.3-2.1-6.7-3.9c-2.5-1.9-1.1-4.2-0.6-4.8C53,93.3,61.4,88.7,68.7,87.7z M53.1,89.7
		C60,84,65.9,84,66,85.3c0.1,0.5-0.2,0.8-1,1.1c-0.7,0.2-2.3,0.3-9.2,3c-0.5,0.2-3,1.2-3.3,1.3C52.1,90.8,52,90.6,53.1,89.7z
		 M54.9,40.7c-3.9-5.9-1.7-16.4,12.4-12.1C55.6,28.8,55.1,35.5,54.9,40.7z M38.2,65.1c5.7-5.1,3.7-9.6,9.6-11.1
		c5.9-1.5,9.3,2.8,9.9,10.6c0.3,3.3,0.3,11.2-2.5,11.9c-5.1,1.2-10.9,2.4-15.2,2.8C31.2,80.2,29.8,72.6,38.2,65.1z M13.6,27
		c1.2-1,2.6-2,2.9,0.8c0.4,3.1,1,5.2-0.5,6.6c-3.2,3.1-7.3,7.6-10.3,18.1C4.6,47.8,6,33.2,13.6,27z M10.4,119.7c0,0-4.9-8.2-4.5-18
		C6.5,89.6,10.1,86,11.7,81c1.6-5-3.7-14.6-3.3-21.6c0.4-7,1.8-11.5,6.8-16.1c3.5-3.2,6.8-2,3.3,1.3c-2.2,2.1-4.4,4.8-5.9,8.9
		c-1.4,4.1-0.7,10.3,1.1,17.8c1.9,7.5,0.9,10.1-0.6,13.7c-2.2,5.4-3.7,7.2-4.1,12.8c1.7-6,6-9.3,7.7-15.3c2.5-8.9-4.7-19,0-29.3
		c1.5-3.4,4.1-4.4,5.5-4.2c1.4,0.2,0.3,4.2-0.6,5.6c-3.1,5.2-0.4,16.5,0.2,22.4c0.6,6.5-2.3,10.8-6.3,15.6
		C6.7,103.3,9.6,116.5,10.4,119.7z M41.2,207.4c-2.3-2.9-6-5.4-7.7-18.7c-1.7-12.4-5.8-25.7-15.3-47.3C12.7,129,12.3,110.1,18,103
		c3.8-4.8-1.8,10.4,7.9,21.4c5.7,6.5,8.8,13.2,11.4,26.7c1.8,9.5,1.6,20.3,4.2,37.6c2.1,13.8,6,17,8.2,20.8
		C51.7,212.9,43.9,210.9,41.2,207.4z"/>
	</symbol>

	<symbol viewBox="0 0 648 182.2" id="game">
		<path d="M380.9,181.2c-10.9-3.6-20.9-6.6-30.5-10.4c-2-0.8-3.8-4.6-4-7.2c-0.6-7-0.2-14-0.2-21c0-43.3,0-86.6,0-129.9
			c0-8.9,2.4-11.3,11.1-11.3c5.3,0,10.7,0.2,16-0.1c3.5-0.2,5.3,1.2,7.1,4.1c14.9,23.9,29.9,47.7,44.9,71.5c1,1.5,2,3,3.5,5.2
			c1.4-2,2.5-3.5,3.5-5.1c14.5-23.1,29.2-46.1,43.5-69.3C478.7,3,482,1,487.3,1.2c8,0.3,15.9,0.1,24.7,0.1c0,2.2,0,3.9,0,5.7
			c0,51,0,102,0,152.9c0,8.2-1.6,10.4-9.5,13c-8.2,2.6-16.4,5.2-25.3,8c0-35.4,0-70.1,0-104.8c-0.4-0.1-0.7-0.2-1.1-0.4
			c-0.8,1.1-1.7,2.2-2.4,3.3c-10.1,16-20.2,32.1-30.4,48.1c-6.4,10.1-22.1,10.4-28.5,0.4c-10.2-15.8-20.1-31.8-30.1-47.7
			c-0.9-1.4-1.8-2.7-3.7-4C380.9,110.7,380.9,145.4,380.9,181.2z"/>
		<path d="M129.4,108.7c-9,0-17.4,0-25.9,0c-10,0-12.3-2.4-12.3-12.4c0-5.8,0-11.7,0.1-17.5c0-0.5,0.2-1,0.4-2.2c1.5,0,3.1,0,4.6,0
			c19,0,38,0,57,0c7.8,0,11.1,3,11.1,10.7c0.1,25,0.1,50-0.1,75c0,1.9-1.4,4.7-2.9,5.4c-30.7,13.3-62.3,18.9-95.4,10.5
			c-37.7-9.6-64.1-41.2-66-80.6c-2.4-49.1,30.1-88.9,79-96.3C107.2-3,133.3,3.7,158.6,15c1.2,0.5,2.2,2.7,2.3,4.2
			c0.3,5.7,0.1,11.3,0.1,17c-0.1,8.7-5.8,12.1-14.2,9c-10.4-3.9-20.8-8.1-31.6-10.5c-18.3-4.1-36.4-3.4-53,7.1
			c-19.8,12.6-30.2,36.4-26,59.6c4.3,23.7,21.2,40.7,44.9,46c15.3,3.4,30.1,1.7,44.8-2.4c1.3-0.4,3.2-1.9,3.2-2.9
			C129.5,131.2,129.4,120.3,129.4,108.7z"/>
		<path d="M563.9,148.5c28.1,0,55.7,0,83.9,0c0,8.9,0.6,17.6-0.2,26.1c-0.5,4.8-5.1,6.5-9.9,6.5c-15.7-0.1-31.3,0-47,0
			c-17,0-34,0-51,0c-7.9,0-11.2-3.3-11.2-11.2c0-52.7,0-105.3,0-158c0-7,3.1-10.5,9.8-10.5c34.8-0.1,69.7,0,104.5,0
			c0.8,0,1.6,0.2,3.1,0.3c0,8.3,0.3,16.5-0.1,24.8c-0.2,3.7-3,6.3-7,6.8c-2.3,0.3-4.6,0.4-7,0.4c-20.3,0-40.7,0-61,0
			c-2.1,0-4.3,0-6.6,0c-0.2,1.7-0.5,2.8-0.5,3.9c0,10.7,0.1,21.3-0.1,32c-0.1,3.7,1.3,4.8,5,4.8c22.8-0.1,45.7-0.1,68.5-0.1
			c6.6,0,6.6,0,6.6,6.6c0,5,0.1,10-0.1,15c-0.3,7.8-3.1,10.4-10.8,10.4c-21.2,0-42.3,0.1-63.5-0.1c-4.4,0-5.8,1.2-5.7,5.6
			c0.3,10.5,0.1,21,0.1,31.5C563.6,144.9,563.8,146.5,563.9,148.5z"/>
		<path d="M301.3,181c-5.1-14-10.1-27.3-14.8-40.8c-1.4-4.1-3.2-5.7-7.7-5.7c-15.7,0.3-31.3,0.2-47,0c-3.9,0-5.8,1-7.2,5
			c-4.7,13.8-9.9,27.5-15,41.5c-8.8-2.9-17.3-5.4-25.8-8.4c-5.8-2-7.3-6.9-4.5-13.6c7.3-17.9,14.6-35.7,21.9-53.6
			c13.1-32,26.2-64,39.3-96c2.9-7,4.4-8,12-8.1c14.6-0.1,14.6-0.1,20,13.2c19.6,47.9,39.2,95.7,58.7,143.6
			c3.5,8.6,1.7,12.6-7.1,15.5C316.8,176,309.4,178.4,301.3,181z M238.5,102.8c11.9,0,22.8,0,34.5,0c-5.8-15.6-11.2-30.5-16.7-45.4
			c-0.4,0-0.8,0-1.1,0C249.7,72.3,244.3,87.1,238.5,102.8z"/>
	</symbol>

	<symbol viewBox="0 0 366.9 182.5" id="argos">
		<path d="M178.5,182.5c5.6-0.2,9.5-0.2,13.3-0.4c5.9-0.3,11.8-0.5,17.7-1c6.5-0.6,13-1.5,19.5-2.3c8.9-1.2,17.8-3,26.6-5
			c22.7-5.4,44.6-13,65.6-23c12.6-6,24.8-12.8,36.5-20.4c0.8-0.5,1.5-1.2,2.1-1.9c0.7-0.9,0.9-2,0.3-3c-0.5-1.1-1.5-1.6-2.7-1.5
			c-1,0.1-1.9,0.3-2.8,0.6c-3.5,1.4-6.9,2.8-10.4,4.2c-19.6,7.8-39.5,15-59.9,20.6c-23.3,6.5-47.1,10.7-71.2,12.3
			c-8,0.5-16,0.8-24,1c-16,0.3-31.9,0-47.8-1.5c-9-0.8-18-1.9-27-3.4c-11.8-1.9-23.5-4.5-35.1-7.6c-19-5.1-37.6-11.6-56-18.7
			c-5.8-2.3-11.6-4.7-17.4-6.9c-1-0.4-2.1-0.6-3.1-0.6c-2.3,0.1-3.4,2.3-2.2,4.2c0.6,0.9,1.4,1.6,2.3,2.2
			c19.2,12.5,39.6,22.7,61,30.8c22.3,8.4,45.2,14.4,68.8,17.8c8.2,1.2,16.4,2.2,24.6,2.6C164.8,181.9,172.5,182.2,178.5,182.5z"/>
		<path d="M339.4,27.9c-2.6,0-6,0.3-9.5,1c-5.6,1.2-10.9,3.2-15.4,6.9c-5.5,4.5-8.7,10.2-8.9,17.3c-0.1,3.5,0.9,6.6,3.3,9.2
			c1.5,1.7,3.4,3,5.4,4c3,1.6,6.3,2.7,9.6,3.6c2.9,0.8,5.7,1.6,8.6,2.5c1.7,0.5,3.2,1.3,4.6,2.5c2.1,1.9,2.4,4.8,0.7,7.1
			c-0.9,1.2-2,2-3.4,2.6c-2.1,1-4.3,1.3-6.6,1.4c-4.9,0.1-9-1.5-12.3-5.2c-0.5-0.6-1.1-1.3-1.6-1.9c-1.1-1.4-2.6-2-4.4-1.7
			c-0.8,0.1-1.5,0.3-2.2,0.5c-2.6,0.9-5,2.2-7.2,3.7c-2.6,1.7-3,3.5-1.8,6.3c1.5,3.3,3.8,6.1,6.7,8.3c4.6,3.4,9.8,5,15.4,5.7
			c4,0.5,8,0.5,12,0c5.9-0.7,11.5-2.2,16.6-5.2c6.5-3.8,10.9-9.3,12.8-16.6c0.7-2.5,1-5,0.7-7.6c-0.6-4.6-3-8-6.7-10.6
			c-3.8-2.7-8-4.3-12.4-5.6c-2.5-0.8-5.1-1.6-7.6-2.5c-1.6-0.6-3-1.3-4.1-2.6c-2-2.2-1.8-5.1,0.6-6.8c0.7-0.5,1.5-0.9,2.3-1.2
			c3.8-1.3,7.4-0.5,10.8,1.3c1.9,1,3.4,2.4,4.8,4c1.8,2.1,4,2.6,6.5,1.6c2.6-1.1,5.1-2.2,7.5-3.5c3-1.6,3.5-3.5,1.8-6.5
			c-0.3-0.5-0.6-1-0.9-1.4c-1.7-2.4-3.8-4.3-6.3-5.8C353.1,29.2,346.9,27.9,339.4,27.9z"/>
		<path d="M129.5,37.5c0.2-0.8,0.3-1.4,0.4-2c0.2-0.9,0.4-1.8,0.5-2.7c0.1-1.5-0.8-2.5-2.3-2.8c-0.4-0.1-0.8-0.1-1.2-0.1
			c-3.5,0-7,0-10.5,0.1c-0.6,0-1.2,0.1-1.8,0.2c-1.6,0.2-2.6,1.2-3.1,2.6c-0.3,0.8-0.5,1.7-0.6,2.5c-1.8,8.7-3.6,17.4-5.3,26.1
			c-2.4,11.9-4.8,23.7-7.2,35.6c-0.5,2.5,0.6,3.9,3.1,3.9c4.5,0,9,0,13.5,0c0.6,0,1.1,0,1.7-0.2c1.7-0.5,2.3-1.8,2.7-3.4
			c1.9-9.6,3.9-19.2,5.8-28.8c0.8-3.9,1.9-7.6,3.8-11.2c1.9-3.7,4.9-6.1,8.9-7.2c2.7-0.7,5.4-1.2,8.2-1.2c3.1-0.1,5.5-1.2,7.1-3.8
			c0.2-0.3,0.5-0.7,0.7-1c2.5-3.6,5.3-7.1,8.4-10.2c0.3-0.3,0.6-0.6,0.8-0.9c0.7-1,0.3-2.2-0.8-2.7c-0.4-0.2-0.9-0.3-1.3-0.3
			c-5.5,0-11,0-16.4,0.9c-5.3,0.9-10.1,2.7-14.2,6.2C130.1,37.1,129.9,37.3,129.5,37.5z"/>
		<path d="M93.8,95.8C93.4,86.9,93,78,92.6,69.1c-0.4-8.1-0.8-16.2-1.2-24.3c-0.5-10.3-1.1-20.6-1.7-30.9C89.5,11,89.3,8,89.1,5
			c-0.2-2.9-1.6-4.3-4.4-4.9C84,0,83.4,0,82.8,0c-4.5,0.1-8.9,0.2-13.4,0.3c-4.8,0.2-8.8,2-11.7,6c-3.5,4.8-7.2,9.5-10.6,14.4
			c-16.6,24.1-31.8,49-46.2,74.5c-0.2,0.4-0.4,0.8-0.6,1.2c-0.9,2.4,0.3,4.3,2.9,4.3c5.5,0.1,11,0,16.5,0c1.6,0,2.9-0.7,3.9-1.9
			c0.5-0.6,1-1.3,1.4-2c2.3-3.9,4.5-7.4,6.8-11.3c1-1.7,2-3.7,3-4.7c12,0,23.9,0,36,0c0,0,0.1,0.5,0.1,0.9c0.1,4.4,0.3,8.5,0.4,12.8
			c0,1,0.1,1.9,0.2,3c0.2,1.5,1.1,2.5,2.5,2.9c0.9,0.3,1.9,0.3,2.9,0.3c4.1,0,8.1,0,12.2,0c0.5,0,1,0,1.5-0.1c2-0.2,3.2-1.5,3.3-3.4
			C93.8,96.9,93.8,96.3,93.8,95.8z M43.6,62.2c0.7-3.5,22.6-37.6,25.6-39.6c0.6,13.3,1,26.4,1.5,39.5C69.4,62.4,45.4,62.4,43.6,62.2
			z"/>
		<path d="M226.7,33.8c-0.1-2.1-1.7-3.8-3.9-3.9c-3.4-0.1-6.8-0.1-10.2,0.1c-3.3,0.2-5,1.7-5.9,4.9c-0.2,0.8-0.5,1.6-0.7,2.4
			c-0.1,0-0.2,0.1-0.3,0.1c-0.1-0.2-0.2-0.4-0.3-0.5c-2-3-4.8-5-8.1-6.4c-6.5-2.7-13-2.3-19.5,0.1c-5.7,2.2-10.4,5.9-14.4,10.5
			c-5.9,6.9-10,14.8-12.5,23.4c-1.9,6.5-2.7,13.1-1.7,19.8c1.2,8,5.8,13.3,13.3,16.1c5.1,1.9,10.3,2,15.6,1.1
			c4.8-0.8,9.1-2.7,12.5-6.4c0.1-0.1,0.2-0.1,0.5-0.2c-0.2,0.7-0.4,1.3-0.6,1.9c-1.6,4.9-3.9,9.4-7.6,13c-6.2,6.1-15.7,7.8-23.7,3.1
			c-0.6-0.4-1.3-0.7-1.9-1.1c-1.6-1-3.3-1.2-5.2-0.7c-2.8,0.8-5.6,1.8-8.1,3.3c-0.5,0.3-1.1,0.6-1.5,1c-2.4,1.8-2.8,3.6-1.2,6.1
			c0.9,1.4,1.9,2.7,3,3.8c2.5,2.6,5.7,4.4,9,5.7c3.4,1.4,6.9,2.2,10.6,2.7c4.8,0.6,9.5,0.6,14.2-0.3c8.7-1.7,15.6-6.2,21.3-12.9
			c4.7-5.6,7.8-12,10.3-18.8c2.2-5.9,3.5-12,5-18.1c3.9-15.9,7.8-31.8,11.7-47.6C226.7,35.4,226.8,34.6,226.7,33.8z M198.5,58.9
			c-0.9,4.8-2.3,9.6-4.3,14.1c-1.6,3.6-3.6,6.9-6.7,9.4c-3.6,2.9-7.8,3.8-12.3,2.8c-2.8-0.6-4.7-2.4-5.7-5.1c-0.7-1.9-1-3.9-1.1-5.9
			c0.4-2.3,0.6-4.6,1.1-6.8c1.2-5.1,3-9.9,5.8-14.3c1.7-2.6,3.7-4.8,6.3-6.4c3.6-2.3,7.6-2.8,11.7-1.8c3.3,0.8,5,3.1,5.6,6.4
			C199.3,53.8,199,56.4,198.5,58.9z"/>
		<path d="M299.7,49.9c-1.4-9.6-6.6-16.3-15.8-19.8c-4.4-1.7-8.9-2.3-13.4-2.2c-7.8-0.1-15.1,1.6-21.8,5.2
			c-8.6,4.6-14.8,11.4-18.9,20.2c-3.8,8.1-5.7,16.6-4.8,25.5c1.1,10.8,7.5,18.5,18,21.7c5.6,1.7,11.3,1.8,17.1,1.2
			c7.1-0.7,13.6-3,19.5-6.9C296,84,301.7,63.3,299.7,49.9z M279.2,53.6c0,2.7-0.5,5.4-1.1,8c-1,4.1-2.2,8.2-4.1,12.1
			c-1.4,2.8-3,5.5-5.3,7.7c-4.6,4.4-10.1,5.7-16.2,4.7c-4.4-0.8-6.7-3.7-6.9-8.3c-0.1-2.6,0.3-5.1,0.8-7.6c1-4.4,2.2-8.7,4.1-12.9
			c1.4-3.3,3.2-6.3,5.8-8.8c4.7-4.4,10.2-5.7,16.4-4.5c4,0.8,6.1,3.4,6.6,7.5C279.3,52.2,279.2,52.9,279.2,53.6z"/>
	</symbol>

	<symbol viewBox="0 0 1161 87.8" id="ctm">
		<path d="M38.5,76.3c-3.6,1.8-7.9,2.8-12.8,2.8C8.6,79.1,0,68.2,0,46.3c0-5.2,0.6-9.8,1.9-14.1c1.3-4.2,3.1-7.8,5.5-10.9
			c2.4-3,5.3-5.4,8.8-7.1c3.4-1.7,7.3-2.5,11.5-2.5c7.6,0,13.8,2.7,18.6,8.1l-5.8,8.5c-3.1-2.8-6.7-4.3-10.7-4.3
			c-3.9,0-6.9,1.7-9.2,5.2c-2.2,3.4-3.4,8.6-3.4,15.3c0,7.9,1,13.5,3,16.9c2,3.4,4.9,5,8.7,5c5,0,9.5-1.8,13.7-5.4l5,8.5
			C45.2,72.2,42.2,74.5,38.5,76.3z"/>
		<path d="M105.8,44.3c0,11.9-2.8,20.6-8.4,26.4c-5.6,5.7-13.2,8.6-22.8,8.6c-9.2,0-16.3-2.5-21.2-7.5c-4.9-5-7.4-13.3-7.4-24.9
			c0-11.9,2.8-20.8,8.4-26.4c5.6-5.7,13.2-8.5,22.8-8.5c4.6,0,8.6,0.6,12.2,1.8s6.6,3.1,9,5.7c2.4,2.6,4.3,6,5.5,10.1
			C105.2,33.6,105.8,38.5,105.8,44.3z M88.8,47c0-4.6-0.3-8.3-0.9-11.3c-0.6-3-1.4-5.3-2.5-7c-1.1-1.7-2.4-2.9-4-3.6
			c-1.6-0.7-3.4-1-5.5-1c-1.9,0-3.6,0.3-5.2,1c-1.6,0.7-2.9,1.8-4.1,3.4c-1.1,1.6-2,3.7-2.6,6.2c-0.6,2.5-1,5.7-1,9.3
			c0,4.6,0.3,8.3,0.9,11.3c0.6,3,1.4,5.3,2.5,7c1.1,1.7,2.4,2.9,4.1,3.6c1.6,0.7,3.5,1,5.5,1c1.9,0,3.6-0.3,5.2-1
			c1.5-0.7,2.9-1.8,4-3.4c1.1-1.6,2-3.7,2.6-6.2C88.5,53.8,88.8,50.7,88.8,47z"/>
		<path d="M202.1,40.9c0,2,0,4.4-0.1,7.2c0,2.8-0.1,5.8-0.2,9c-0.1,3.2-0.2,6.6-0.2,10.1c0,3.5-0.1,7-0.1,10.6h-16.5
			c0-3.3,0-6.5,0.1-9.7c0-3.2,0.1-6.3,0.1-9.2c0-2.9,0.1-5.6,0.1-8.2c0-2.5,0.1-4.7,0.1-6.6c0-3.9-0.2-7-0.5-9.5
			c-0.3-2.4-0.9-4.4-1.6-5.8c-0.7-1.4-1.6-2.4-2.6-2.9c-1-0.5-2.2-0.8-3.6-0.8c-1.7,0-3.7,0.5-5.8,1.6c-2.1,1.1-4.3,2.5-6.4,4.2
			c0.2,1,0.3,2.3,0.5,3.9c0.1,1.6,0.2,3.5,0.2,5.8v37.3H149V44c0-3.8-0.2-6.9-0.5-9.3c-0.3-2.4-0.9-4.4-1.5-5.8
			c-0.7-1.4-1.5-2.4-2.6-3c-1-0.6-2.2-0.8-3.6-0.8c-1.5,0-3.3,0.5-5.4,1.4c-2,0.9-4.1,2.2-6.2,3.9v47.4h-16.6V13.2h13.7l1.2,6.8
			c2.6-2.4,5.5-4.4,8.7-5.9c3.2-1.5,6.7-2.3,10.4-2.3c4,0,7.4,0.9,10,2.6c2.6,1.8,4.5,4,5.7,6.6c3.1-2.7,6.3-5,9.7-6.7
			c3.4-1.7,7-2.6,10.9-2.6c6.3,0,11.1,2.3,14.4,6.8C200.5,23.1,202.1,30.5,202.1,40.9z"/>
		<path d="M267.6,42.9c0,6.4-0.8,11.8-2.4,16.4c-1.6,4.6-3.9,8.4-6.7,11.3c-2.8,3-6.2,5.1-10.2,6.5c-4,1.4-8.3,2.1-12.9,2.1
			c-0.9,0-2.1,0-3.4-0.1c-1.3,0-2.4-0.2-3.5-0.3v8.9h-16.6V13.2h13.5l1.3,6.6c2.7-2.4,5.5-4.3,8.5-5.8c3-1.5,6.1-2.2,9.4-2.2
			c3.9,0,7.2,0.8,10.1,2.4c2.9,1.6,5.3,3.8,7.2,6.6c1.9,2.8,3.3,6.1,4.3,9.9C267.1,34.5,267.6,38.6,267.6,42.9z M250.6,45.2
			c0-6.7-0.9-11.8-2.8-15.3c-1.9-3.5-4.5-5.3-7.7-5.3c-1.5,0-3.3,0.4-5.4,1.4c-2,0.9-4.1,2.3-6.1,4.1v36.1c1.1,0.4,2.3,0.8,3.6,1
			c1.3,0.2,2.7,0.3,4.1,0.3c4.2,0,7.6-1.8,10.3-5.3C249.3,58.5,250.6,52.9,250.6,45.2z"/>
		<path d="M310.8,77.8l-1.2-6.6c-2.8,2.4-5.7,4.3-8.8,5.8c-3.1,1.5-6.7,2.2-10.8,2.2c-6.6,0-11.6-1.6-15-4.7
			c-3.4-3.1-5.1-7.7-5.1-13.7c0-6.7,2.7-12.1,8.1-16.2c5.4-4.1,13.8-6.1,25.1-6.1h4v-4.9c0-3.3-0.9-5.7-2.8-7.3
			c-1.9-1.6-4.9-2.4-9.1-2.4c-3.4,0-6.7,0.4-10.1,1.2c-3.4,0.8-6.5,1.7-9.5,2.7l-2.2-10.1c3.9-1.7,7.9-3.1,12.2-4.2
			c4.3-1.1,8.8-1.6,13.7-1.6c8.3,0,14.5,1.8,18.4,5.4c4,3.6,5.9,8.5,5.9,14.7v45.9H310.8z M307.2,48.7h-4.9c-3.1,0-5.7,0.2-7.8,0.7
			c-2.1,0.5-3.8,1.2-5,2.1c-1.2,0.9-2.1,2-2.6,3.2c-0.5,1.2-0.8,2.6-0.8,4.2c0,2.7,0.7,4.7,2.3,6.3c1.5,1.5,3.6,2.3,6.4,2.3
			c2,0,4-0.5,6.2-1.5c2.1-1,4.2-2.3,6.2-4.1V48.7z"/>
		<path d="M368.7,27.9c-1.4-0.4-2.5-0.7-3.3-0.8c-0.9-0.1-1.6-0.1-2.3-0.1c-1.8,0-3.6,0.7-5.4,2.1c-1.8,1.4-4.2,4-7.1,7.7v41h-16.6
			V13.2h13.7l1.3,10.1c3.3-4.4,6.1-7.4,8.5-9c2.4-1.6,4.8-2.4,7.1-2.4c0.9,0,2,0.1,3,0.3c1.1,0.2,2.1,0.6,3.2,1.1L368.7,27.9z"/>
		<path d="M386.3,48.8v0.9c0,5.9,1.2,10.2,3.7,12.9c2.5,2.7,6.1,4,10.7,4c2.9,0,6.2-0.3,9.8-1c3.6-0.6,7.3-1.6,11.1-2.8l2.4,9.5
			c-4,2.1-8.2,3.7-12.7,5c-4.5,1.2-9.2,1.9-14,1.9c-4.2,0-8.1-0.6-11.5-1.7c-3.5-1.1-6.4-2.9-8.9-5.5c-2.4-2.5-4.3-5.8-5.7-9.9
			c-1.3-4-2-9-2-15c0-11.6,2.6-20.4,7.8-26.4c5.2-6,12.4-9,21.5-9c4.1,0,7.9,0.6,11.3,1.9c3.4,1.2,6.2,3.3,8.5,6.3
			c2.3,2.9,4,6.7,5,11.4c1.1,4.7,1.4,10.5,1,17.5H386.3z M408.4,38.2c0-10.2-3.5-15.3-10.4-15.3c-3.6,0-6.4,1.4-8.3,4.3
			c-1.9,2.9-3,6.6-3.3,11.3h22V38.2z"/>
		<path d="M451.2,78.7c-5.2,0-8.9-1.3-11-3.9c-2.1-2.6-3.2-7.1-3.2-13.3V19.8h-11.1v-5.5H437c0.4-2.8,0.8-5.7,1.2-8.7
			c0.4-3,0.7-0.5,1-3.7h5.3v12.4H463v5.5h-18.6v39.8c0,4.8,0.5,8.2,1.6,10.2c1.1,2,3.4,3,6.9,3c1.2,0,2.6-0.2,4.3-0.5
			c1.7-0.3,3.8-0.9,6.3-1.9l1.2,4.6C459.7,77.5,455.2,78.7,451.2,78.7z"/>
		<path d="M519.6,41.3c0,5.4-0.1,11.4-0.2,18c-0.1,6.6-0.2,12.7-0.2,18.5h-7.3c0-5.7,0-11.6,0.1-17.7c0.1-6.1,0.1-11.6,0.1-16.5
			c0-8.8-1.2-15-3.5-18.7c-2.4-3.7-5.7-5.5-10.1-5.5c-2.3,0-5,0.7-8.1,2.2c-3.1,1.5-6.1,3.6-9.2,6.3v49.9h-7.5v-76h7.5v19.9
			c2.8-2.3,5.8-4.3,9.1-5.9c3.3-1.6,6.9-2.4,10.8-2.4c2.7,0,5.3,0.5,7.5,1.4c2.3,0.9,4.2,2.5,5.9,4.7c1.6,2.2,2.9,5.1,3.8,8.6
			C519.2,31.7,519.6,36.1,519.6,41.3z"/>
		<path d="M539.9,46.5v1.4c0,8.9,1.6,15.3,4.8,19.1c3.2,3.8,7.9,5.7,14.1,5.7c5.9,0,11.9-1.4,17.8-4.1l1.8,4.9c-3,1.6-6.3,2.8-10,3.8
			c-3.7,1-7.5,1.5-11.7,1.5c-3.7,0-7.1-0.6-10.1-1.7c-3.1-1.1-5.7-2.9-7.8-5.3c-2.1-2.4-3.8-5.6-5-9.5c-1.2-4-1.8-8.7-1.8-14.3
			c0-11,2.2-19.5,6.5-25.5c4.3-6,10.5-9,18.5-9c3.6,0,6.8,0.6,9.5,1.9c2.7,1.2,5.1,3.2,7,5.9c1.9,2.7,3.3,6.1,4.1,10.3
			c0.9,4.2,1.1,9.2,0.8,15H539.9z M571,40.5c0-6.9-1.3-12.2-3.8-15.9c-2.5-3.7-6.3-5.6-11.2-5.6c-2.6,0-4.9,0.6-6.9,1.8
			c-2,1.2-3.7,2.8-5,4.8c-1.3,2-2.3,4.3-3,7c-0.7,2.6-1.1,5.4-1.3,8.3H571V40.5z"/>
		<path d="M678.3,40.9c0,2,0,4.4-0.1,7.2c0,2.8-0.1,5.8-0.2,9c-0.1,3.2-0.2,6.6-0.2,10.1c0,3.5-0.1,7-0.1,10.6h-16.5
			c0-3.3,0-6.5,0.1-9.7c0-3.2,0.1-6.3,0.1-9.2c0-2.9,0.1-5.6,0.1-8.2c0-2.5,0.1-4.7,0.1-6.6c0-3.9-0.2-7-0.5-9.5
			c-0.3-2.4-0.9-4.4-1.6-5.8c-0.7-1.4-1.6-2.4-2.6-2.9c-1-0.5-2.2-0.8-3.6-0.8c-1.7,0-3.7,0.5-5.8,1.6c-2.1,1.1-4.3,2.5-6.4,4.2
			c0.2,1,0.3,2.3,0.5,3.9c0.1,1.6,0.2,3.5,0.2,5.8v37.3h-16.5V44c0-3.8-0.2-6.9-0.5-9.3c-0.3-2.4-0.9-4.4-1.6-5.8
			c-0.7-1.4-1.5-2.4-2.6-3c-1-0.6-2.2-0.8-3.6-0.8c-1.5,0-3.3,0.5-5.3,1.4c-2,0.9-4.1,2.2-6.3,3.9v47.4h-16.6V13.2h13.7l1.2,6.8
			c2.6-2.4,5.5-4.4,8.7-5.9c3.2-1.5,6.7-2.3,10.4-2.3c4,0,7.4,0.9,10,2.6c2.6,1.8,4.5,4,5.7,6.6c3.1-2.7,6.3-5,9.7-6.7
			c3.4-1.7,7-2.6,10.9-2.6c6.3,0,11.1,2.3,14.4,6.8C676.6,23.1,678.3,30.5,678.3,40.9z"/>
		<path d="M724.6,77.8l-1.2-6.6c-2.8,2.4-5.7,4.3-8.8,5.8c-3.1,1.5-6.7,2.2-10.8,2.2c-6.6,0-11.6-1.6-15-4.7
			c-3.4-3.1-5.1-7.7-5.1-13.7c0-6.7,2.7-12.1,8.1-16.2c5.4-4.1,13.8-6.1,25.1-6.1h4v-4.9c0-3.3-0.9-5.7-2.8-7.3
			c-1.9-1.6-4.9-2.4-9.2-2.4c-3.4,0-6.7,0.4-10.1,1.2c-3.4,0.8-6.6,1.7-9.5,2.7l-2.2-10.1c3.9-1.7,7.9-3.1,12.2-4.2
			c4.3-1.1,8.8-1.6,13.7-1.6c8.3,0,14.5,1.8,18.4,5.4c4,3.6,5.9,8.5,5.9,14.7v45.9H724.6z M721,48.7h-4.9c-3.1,0-5.7,0.2-7.8,0.7
			c-2.1,0.5-3.8,1.2-5,2.1c-1.2,0.9-2.1,2-2.6,3.2c-0.5,1.2-0.8,2.6-0.8,4.2c0,2.7,0.8,4.7,2.3,6.3c1.5,1.5,3.6,2.3,6.4,2.3
			c2,0,4-0.5,6.2-1.5c2.1-1,4.2-2.3,6.2-4.1V48.7z"/>
		<path d="M782.5,27.9c-1.4-0.4-2.5-0.7-3.4-0.8c-0.9-0.1-1.6-0.1-2.3-0.1c-1.8,0-3.6,0.7-5.4,2.1c-1.8,1.4-4.2,4-7.1,7.7v41h-16.6
			V13.2h13.7l1.3,10.1c3.3-4.4,6.1-7.4,8.5-9c2.4-1.6,4.8-2.4,7.1-2.4c0.9,0,2,0.1,3,0.3c1.1,0.2,2.1,0.6,3.2,1.1L782.5,27.9z"/>
		<path d="M822.1,77.8l-17.3-32v32h-16.6V0h16.6v38.1l14.8-24.9H839l-19.2,26.9l21.8,37.6H822.1z"/>
		<path d="M854.2,48.8v0.9c0,5.9,1.2,10.2,3.7,12.9c2.5,2.7,6.1,4,10.7,4c2.9,0,6.2-0.3,9.8-1c3.6-0.6,7.3-1.6,11.1-2.8l2.4,9.5
			c-4,2.1-8.2,3.7-12.7,5c-4.5,1.2-9.2,1.9-14,1.9c-4.2,0-8.1-0.6-11.5-1.7c-3.5-1.1-6.4-2.9-8.9-5.5c-2.4-2.5-4.3-5.8-5.7-9.9
			c-1.3-4-2-9-2-15c0-11.6,2.6-20.4,7.8-26.4c5.2-6,12.4-9,21.5-9c4.1,0,7.9,0.6,11.3,1.9c3.4,1.2,6.2,3.3,8.5,6.3
			c2.3,2.9,4,6.7,5,11.4c1.1,4.7,1.4,10.5,1,17.5H854.2z M876.3,38.2c0-10.2-3.5-15.3-10.4-15.3c-3.6,0-6.4,1.4-8.3,4.3
			c-1.9,2.9-3,6.6-3.3,11.3h22V38.2z"/>
		<path d="M925.4,78.1c-2.7,0.6-5.2,1-7.7,1c-5.9,0-10.1-1.3-12.6-3.8c-2.5-2.5-3.7-6.9-3.7-13.1V24.8h-8.1V13.2h8.8
			c0.8-2.9,1.5-5.9,2.1-8.9c0.6-3,1.2-0.7,1.8-4.3h12.1v13.2h14.3v11.6h-14.3v33.3c0,3.3,0.4,5.5,1.3,6.8c0.9,1.2,2.4,1.9,4.5,1.9
			c1,0,2.3-0.1,3.7-0.3c1.4-0.2,3.2-0.6,5.2-1.2l1.3,9.5C930.9,76.4,928.1,77.5,925.4,78.1z"/>
		<path d="M955.3,73.1c0,2.2-0.3,3.7-1,4.4c-0.7,0.7-2.1,1-4.3,1c-2.2,0-3.7-0.3-4.4-1c-0.7-0.7-1-2.1-1-4.1c0-2.2,0.4-3.7,1.1-4.4
			c0.7-0.7,2.2-1.1,4.4-1.1c2.1,0,3.5,0.3,4.2,1C955,69.6,955.3,71,955.3,73.1z"/>
		<path d="M1003.2,76.1c-3.2,1.7-7,2.6-11.4,2.6c-7.6,0-13.4-2.6-17.4-7.9c-4-5.3-6.1-13.2-6.1-23.8c0-5.3,0.6-10.1,1.9-14.2
			c1.2-4.2,3-7.7,5.3-10.6c2.3-2.9,5-5.1,8.1-6.6c3.1-1.5,6.5-2.3,10.2-2.3c6.4,0,11.8,2.6,16.4,7.7l-3.1,4
			c-4.1-3.9-8.6-5.8-13.4-5.8c-5.7,0-10,2.3-13,7c-3,4.7-4.4,11.1-4.4,19.1c0,8.9,1.4,15.6,4.3,20.2c2.8,4.6,7.1,7,12.9,7
			c2.7,0,5.3-0.6,7.8-1.7c2.5-1.1,5.1-3,7.7-5.5l3.1,3.9C1009.3,72.1,1006.4,74.4,1003.2,76.1z"/>
		<path d="M1066.9,44.9c0,5.8-0.6,10.8-1.9,15c-1.2,4.1-3.1,7.6-5.5,10.5c-2.4,2.9-5.4,5-8.7,6.3c-3.4,1.3-7,2-11.1,2
			c-3.7,0-7-0.6-9.9-1.7c-2.9-1.1-5.4-3-7.7-5.5c-2.2-2.6-4-5.8-5.2-9.7c-1.2-3.9-1.8-8.8-1.8-14.6c0-5.7,0.7-10.7,2-15
			c1.3-4.3,3.2-7.9,5.6-10.6c2.4-2.8,5.3-4.8,8.6-6.1c3.3-1.3,7-2,11-2c3.6,0,6.9,0.6,10,1.8c3.1,1.2,5.6,3.1,7.7,5.6
			c2.1,2.5,3.8,5.8,5,9.7C1066.3,34.4,1066.9,39.2,1066.9,44.9z M1059.1,47.6c0-9.8-1.4-17-4.3-21.5c-2.9-4.6-7.5-6.8-13.9-6.8
			c-5.6,0-9.9,2.2-13.1,6.5c-3.1,4.3-4.7,10.6-4.7,18.6c0,10.1,1.5,17.3,4.4,21.7c2.9,4.4,7.5,6.6,13.7,6.6c5.6,0,10-2.1,13.1-6.3
			C1057.5,62.2,1059.1,56,1059.1,47.6z"/>
		<path d="M1161,41.2c0,2.2,0,4.8-0.1,7.8c0,3-0.1,6.1-0.1,9.3c0,3.3-0.1,6.6-0.1,9.9c0,3.4-0.1,6.5-0.1,9.5h-7.5
			c0-2.8,0-5.6,0.1-8.6c0-3,0.1-6,0.1-9c0-3,0-5.9,0.1-8.8c0-2.9,0.1-5.5,0.1-7.9c0-8.6-1.1-14.7-3.3-18.4c-2.2-3.7-5.3-5.5-9.3-5.5
			c-2.5,0-5.4,0.9-8.6,2.8c-3.2,1.8-6.3,4.1-9.3,6.8c0.3,1.5,0.6,3.1,0.8,4.8c0.2,1.7,0.3,4.2,0.3,7.5v36.6h-7.5V43.4
			c0-8.4-1.1-14.5-3.3-18.3c-2.2-3.8-5.3-5.7-9.3-5.7c-2.3,0-4.9,0.8-7.9,2.4c-2.9,1.6-5.9,3.6-8.9,6.1v49.9h-7.5V14.2h6.3l0.8,7.9
			c2.7-2.5,5.8-4.6,9.3-6.3c3.5-1.7,7-2.5,10.4-2.5c3.8,0,7,1.1,9.5,3.2c2.6,2.1,4.3,4.5,5.3,7.3c3.3-2.9,6.9-5.4,10.6-7.4
			c3.7-2,7.5-3,11.5-3c2.5,0,4.8,0.5,7,1.4c2.1,0.9,4,2.5,5.6,4.7c1.6,2.2,2.8,5.1,3.7,8.6C1160.6,31.7,1161,36,1161,41.2z"/>
	</symbol>

	<symbol viewBox="0 0 395.4 200" id="ea">
		<path d="M276.8,0c-23.9,53.3-47.6,106-71.3,158.7c-47.7,0-95.2,0-143,0c8.3-16.3,16.4-32.3,24.5-48.3c32.8,0.6,65.3,0.3,98,0.6
			c5.2-11.3,10.4-22.4,15.5-33.5c0.5-1,0.9-2,1.3-3.1c0-0.1,0-0.2,0-0.2c0-0.1,0-0.2,0-0.3c0-0.1-0.1-0.1-0.2-0.2
			c-2.9-0.4-167.1-0.3-169,0.1c-3,4.6-19,34.8-19.6,37.1c1.1,0,2.1,0,3.1,0c8.6,0,17.2-0.1,25.8-0.1c0.7,0,1.4,0.1,2.3,0.1
			c-5,9.6-9.9,19-14.8,28.4c-4.9,9.5-9.9,18.9-14.8,28.4c-4.8,9.4-9.8,18.6-14.7,28.4c1.3,0,2.1,0,3,0c14.4,0,28.7,0,43.1,0.1
			c12.5,0,25,0.3,37.4,0.2c33-0.1,65.9,0.5,98.9-0.2c14.2-0.3,28.4-0.4,42.6-0.6c0.8,0,1.7-0.1,2.6-0.1
			c17.6-38.2,35.1-76.3,52.6-114.5c2.3,2.8,27.1,41.8,27.6,43.6c-5.8,0.3-11.7-0.1-17.7,0.7c-4.5,9.6-9.2,19.2-13.9,29.3
			c3.9,0.1,7.3,0,10.7,0c3.4,0,6.7,0,10.1,0c3.4,0,6.9,0,10.3,0c3.4,0,6.7,0,10.1,0c3.4,0,6.9,0,10.4,0
			c8.9,15.3,17.7,30.4,26.4,45.3c13.5,0,26.7,0,39.8,0c0.3,0,0.6-0.2,1.3-0.5C355.9,133.1,316.5,66.8,276.8,0z M64.7,0.5
			c-2.1,4-4.3,8-6.5,12.1c-2.2,4.2-4.5,8.3-6.7,12.5c-2.1,4-4.5,8-6.6,12.4c57.6,0,114.9,0,172.4,0c5.7-12.3,11.4-24.6,17-37
			C232.1,0.1,67.4,0,64.7,0.5z"/>
	</symbol>

	<symbol viewBox="0 0 528.7 150.7" id="bbc">
		<path d="M368.7,0C422,0,475.4,0,528.7,0c0,50.2,0,100.5,0,150.7c-53.4,0-106.7,0-160.1,0c0-0.6,0.1-1.3,0.1-1.9
			c0-49.1,0-98.2,0-147.3C368.8,0.9,368.7,0.5,368.7,0z M495.7,48.9c0.1-0.4,0.1-0.5,0.1-0.6c0-6.1,0-12.2,0-18.3
			c0-0.9-0.4-1.3-1.2-1.6c-9.9-3.8-20-7.1-30.7-8.2c-12.4-1.3-24.5,0-36.1,5c-16.9,7.2-28.3,19.3-33.1,37.2
			c-2.1,7.6-2.7,15.4-1,23.1c3.7,17.2,13.5,30,29.1,38.2c9.5,5,19.7,7,30.4,7.2c15,0.3,29.3-2.5,42.7-9.4c0.8-0.4,1.1-0.9,1.1-1.8
			c0-6,0-11.9,0-17.9c0-0.3-0.1-0.7-0.1-1.2c-0.5,0.3-0.9,0.5-1.2,0.7c-4.1,2.1-8,4.5-12.2,6.3c-11,4.8-22.5,7-34.5,5.5
			c-8-1-15.4-3.5-21.9-8.4c-9-6.9-13.6-16.1-14.2-27.4c-0.5-11,2.9-20.6,10.9-28.4C432.2,41,442.5,37.4,454,37
			c11.9-0.4,23.1,2.6,33.8,7.8C490.4,46.1,493,47.5,495.7,48.9z"/>
		<path d="M160.1,150.7c-53.4,0-106.7,0-160.1,0C0,100.5,0,50.2,0,0c53.4,0,106.7,0,160.1,0c0,0.6,0,1.1,0,1.7
			c0,48.8,0,97.7,0,146.5C160,149.1,160,149.9,160.1,150.7z M98.8,71.6c0,0,0.2-0.1,0.3-0.2c7.3-3.9,11.9-9.7,12.8-18.2
			c1.2-10.8-2.7-19.4-11.6-25.6c-6.7-4.6-14.2-6.4-22.2-6.4c-11.5-0.1-23,0-34.5,0c-0.5,0-1,0-1.6,0.1c0,1.1,0,2,0,3
			c0,34.5,0,69.1,0,103.6c0,1.7,0,1.7,1.8,1.7c12.2,0,24.4,0.1,36.6,0c4.3,0,8.7-0.3,12.9-1c6.5-1,12.7-3.1,17.9-7.3
			c6.6-5.3,10.5-12.1,10.7-20.6c0.3-10.8-4.4-19.1-13.7-24.6C105.3,74.3,102,73,98.8,71.6z"/>
		<path d="M184.5,0c53.4,0,106.7,0,160.1,0c0,0.6-0.1,1.2-0.1,1.8c0,49.1,0,98.2,0,147.2c0,0.6-0.1,1.1-0.2,1.7
			c-53.3,0-106.5,0-159.8,0c0-0.7-0.1-1.5-0.1-2.2c0-48.9,0-97.9,0-146.8C184.4,1.1,184.4,0.6,184.5,0z M282.8,71.8
			c0.5-0.3,0.8-0.5,1.1-0.6c2.8-1.6,5.3-3.4,7.4-5.8c3.9-4.5,5.3-9.8,5.3-15.6c0.1-9.6-4.2-17-12-22.3c-6.6-4.5-14.2-6.2-22.1-6.3
			c-11.4-0.1-22.9,0-34.3,0c-0.5,0-1.1,0-1.8,0c0,0.7,0,1.1,0,1.6c0,35.1,0,70.1,0,105.2c0,1.3,0.4,1.7,1.7,1.6
			c12.3,0,24.5,0,36.8-0.1c3.8,0,7.6-0.2,11.4-0.7c6.5-0.8,12.7-2.7,18.1-6.6c7.1-5,11.4-11.9,12.1-20.6
			c0.7-10.2-3.2-18.4-11.6-24.4C291.2,74.8,287.3,73.1,282.8,71.8z"/>
		<path d="M61.5,83.2c9.3,0,18.5-0.9,27.6,0.9c3,0.6,5.9,1.8,8.3,3.8c6.9,5.6,6,16.7-1.6,21.2c-3.6,2.2-7.6,3.2-11.7,3.3
			c-7.2,0.2-14.4,0.2-21.7,0.2c-0.7,0-1.1-0.1-1.1-1c0-9.3,0-18.7,0-28C61.4,83.5,61.5,83.4,61.5,83.2z"/>
		<path d="M61.5,38.2c0.2-0.1,0.3-0.1,0.4-0.1c6.1,0.1,12.2,0.1,18.3,0.5c3.6,0.2,7,1.6,9.5,4.5c2.9,3.5,3.1,7.7,2.2,11.9
			c-1.2,5.9-5.5,8.6-10.9,10c-4,1.1-8.1,1.2-12.2,1.1c-2.1,0-4.2,0-6.4,0c-0.7,0-1-0.2-1-1c0-8.8,0-17.7,0-26.5
			C61.4,38.5,61.5,38.3,61.5,38.2z"/>
		<path d="M245.9,112.5c0-9.8,0-19.6,0-29.5c0.7,0,1.4,0,2.1,0c6.3,0,12.6,0,19,0.1c4.6,0.1,9,1,13.1,3.4c4.2,2.5,6.5,6.1,6.5,11
			c0,5.1-2,9-6.4,11.6c-3.7,2.2-7.7,3.1-11.9,3.2c-7.2,0.2-14.5,0.1-21.7,0.2C246.3,112.7,246.1,112.6,245.9,112.5z"/>
		<path d="M245.8,66.1c0-9.4,0-18.7,0-28.1c0.7,0,1.3,0,1.9,0c4.6,0,9.3,0,13.9,0.2c3,0.1,6,0.7,8.8,2c4.6,2.3,6.8,6.6,6.3,12.3
			c-0.6,6.6-4.3,11-11,12.3c-3.7,0.7-7.4,1-11.2,1.2C251.6,66.2,248.7,66.1,245.8,66.1z"/>
	</symbol>

	<symbol viewBox="0 0 656.2 179.7" id="climax">
		<path d="M0,42.4c0.6-2.2,1-4.5,2-6.6c0.9-1.8,2.3-3.5,3.8-5c8.6-8.4,17.4-16.7,26.1-25.1c3.8-3.7,8.2-5.4,13.4-5.4
			c14,0,28.1,0,42.1,0c5.9,0,10.6,2.2,13.9,7.2c2,3,4.2,5.7,6.2,8.7c0.4,0.5,0.5,1.7,0.2,2.2c-4.8,6.5-9.6,13-14.4,19.4
			c-0.1,0.1-0.2,0.1-0.6,0.3c-2.3-3.2-4.7-6.4-6.9-9.7c-1.8-2.7-4.1-3.9-7.5-3.9c-9.1,0.2-18.2,0.1-27.3,0c-2.5,0-4.5,0.8-6.3,2.5
			c-4.6,4.5-9.3,9-14,13.5c-1.6,1.5-2.5,3.3-2.5,5.6c0,13.6-0.1,27.2,0.1,40.8c0,1.8,1,3.9,2.2,5.2c4.7,5.1,9.7,9.8,14.6,14.7
			c1.6,1.6,3.6,2,5.8,2c12.8,0,25.6,0,38.4,0c0.8,0,1.6,0,2.5,0c0,8.1,0,16,0,24.3c-0.7,0-1.5,0-2.3,0c-14.5,0-29.1,0-43.6,0
			c-5.8,0-10.6-1.8-14.7-5.9C24,120.1,16.7,113,9.3,106c-4.4-4.1-8.5-8.4-9.3-14.7C0,75,0,58.7,0,42.4z"/>
		<path d="M290.2,56.4c0,25.8,0,51.1,0,76.5c-9.3,0-18.4,0-27.7,0c0-44.1,0-88.3,0-132.6c9.1,0,18.2,0,27.6,0c0,0.7,0.1,1.5,0.1,2.2
			c0,5.5-0.1,11.1,0.1,16.6c0,1.4,0.7,3.1,1.7,4c11.8,11,23.7,21.9,35.6,32.8c0.2,0.1,0.4,0.2,0.7,0.5c0.4-0.3,0.9-0.6,1.3-1
			c11.7-10.9,23.3-21.7,35-32.5c1.3-1.2,1.8-2.5,1.8-4.2c-0.1-6,0-12.1,0-18.3c9.3,0,18.5,0,27.8,0c0,44.2,0,88.3,0,132.6
			c-9.2,0-18.4,0-27.7,0c0-25.5,0-50.9,0-76.9c-0.9,0.8-1.5,1.3-2.1,1.8c-9.2,8.5-18.5,16.9-27.4,25.6c-4.9,4.8-11,5.6-16.8,0.1
			c-9.1-8.7-18.6-17-27.9-25.4C291.7,57.6,291.2,57.2,290.2,56.4z"/>
		<path d="M631.8,66.6c4.4,3.2,8.7,6.5,13,9.4c6.5,4.5,9.7,10.9,10.6,18.5c0.5,4.5,0.4,9,0.4,13.5c0.1,7.6,0,15.3,0,22.9
			c0,0.6,0,1.3,0,2.1c-9,0-17.8,0-26.9,0c0-0.9,0-1.6,0-2.4c0-7.9,0-15.9,0-23.8c0-6.9-2.7-12.2-8.8-15.7c-4.4-2.5-8.7-5.2-13-8
			c-2.9-1.8-5.5-1.7-8.3,0c-4.3,2.7-8.6,5.5-13,7.9c-6.2,3.5-8.8,8.9-8.8,15.7c-0.1,7.9,0,15.7,0,23.6c0,0.8,0,1.6,0,2.6
			c-8.9,0-17.6,0-26.5,0c-0.1-0.3-0.2-0.7-0.2-1.1c0-11.9-0.2-23.7,0.3-35.6c0.3-8.3,3.8-15.4,11-20.3c4.3-2.9,8.4-6.1,12.9-9.4
			c-4.2-3-8-6.1-12.2-8.8c-7-4.5-10.5-11.1-11.6-19.1c-0.5-3.9-0.3-7.8-0.3-11.8c-0.1-8.2-0.1-16.4-0.1-24.7c0-0.6,0.1-1.3,0.1-2
			c8.9,0,17.6,0,26.7,0c0,0.9,0,1.6,0,2.4c0,7.8,0,15.6,0,23.3c0,7.1,2.7,12.6,9.1,16.2c4.4,2.4,8.6,5.2,12.9,7.8
			c2.7,1.7,5.4,1.8,8.2,0c4.6-2.9,9.3-5.7,13.9-8.5c5.2-3.1,7.7-7.8,7.9-13.7c0.2-8.2,0.1-16.4,0.1-24.7c0-0.9,0-1.7,0-2.8
			c8.9,0,17.8,0,26.9,0c0,0.6,0,1.3,0,2c0,10.5,0,20.9,0,31.4c0,4.8-0.9,9.4-3,13.7c-1.7,3.7-4.1,6.8-7.5,9.2
			c-4,2.8-7.9,5.7-11.8,8.6C633,65.6,632.5,66,631.8,66.6z"/>
		<path d="M401.3,133.1c3.2-7.7,6.1-14.9,9.1-22.1c15-36.2,30-72.5,44.9-108.7c0.7-1.6,1.4-2.3,3.3-2.2c9.2,0.1,18.5,0.1,27.7,0
			c1.3,0,2,0.3,2.5,1.7c17.3,43.2,34.7,86.4,52,129.5c0.2,0.5,0.4,1.1,0.7,1.7c-27.7,0-55.2,0-83,0c0.8-2.4,1.6-4.7,2.3-6.9
			c2-5.9,4.1-11.8,6-17.7c0.5-1.6,1.3-1.9,2.8-1.9c9.2,0.1,18.5,0,27.7,0c0.8,0,1.6,0,2.8,0c-9.6-26.8-19.1-53.2-28.7-80.2
			c-0.5,1.2-0.8,1.9-1.1,2.6c-12.9,34-25.8,68-38.7,102c-0.7,1.8-1.5,2.4-3.4,2.3c-8.1-0.1-16.1-0.1-24.2-0.1
			C403.3,133.1,402.5,133.1,401.3,133.1z"/>
		<path d="M113.5,133.1c0-1.2,0-2.1,0-2.9c0-27.1,0.1-54.2,0-81.4c0-5.8,1.6-10.8,5.1-15.4c8.3-11,16.5-22.1,25-33.4
			c7.3,5.2,14.5,10.4,21.9,15.7c-0.5,0.8-0.9,1.4-1.4,2.1c-6.8,9.4-13.5,18.9-20.4,28.3c-1.4,1.9-2,3.9-2,6.2
			c0.1,17.7,0,35.5,0,53.2c0,0.9,0,1.7,0,2.8c0.9,0,1.6,0.1,2.4,0.1c9.4,0,18.8-0.1,28.1,0.1c3,0,5-1.2,6.6-3.4
			c2.8-3.8,5.6-7.6,8.5-11.7c6.8,4.8,13.5,9.6,20.3,14.5c-4,5.5-8.1,10.7-11.8,16.3c-4.2,6.5-9.8,9-17.4,8.9
			c-20.5-0.3-41-0.1-61.5-0.1C116,133.1,114.9,133.1,113.5,133.1z"/>
		<path d="M218.4,0.3c9.2,0,18.2,0,27.5,0c0,44.2,0,88.4,0,132.7c-9.1,0-18.2,0-27.5,0C218.4,88.9,218.4,44.7,218.4,0.3z"/>
		<path d="M551.8,179.7c0-8.8,0-17.1,0-25.8c5.8,0.3,11.5,0.4,17.2,0.8c2.6,0.2,4.2,2.3,4.3,4.8c0.2,4.8,0.3,9.7,0,14.6
			c-0.1,2.7-1.9,4.7-4.8,4.9C563,179.4,557.5,179.5,551.8,179.7z M556.6,157.6c0,6.4,0,12.2,0,18.1c2.9,0,5.6,0.1,8.3,0
			c2.4-0.2,3.6-1.3,3.8-3.7c0.2-3.4,0.1-6.8,0-10.2c-0.1-1.9-1.1-3.4-3.1-3.6C562.6,157.8,559.7,157.7,556.6,157.6z"/>
		<path d="M624.7,166.9c-0.2,2.3-0.3,4.6-0.6,6.9c-0.5,3.3-2.2,5.2-5.5,5.5c-3.4,0.3-6.8,0.3-10.2,0c-3.7-0.3-5.7-2.4-5.9-6.1
			c-0.3-4.3-0.3-8.6,0-12.8c0.2-3.9,2.4-6,6.3-6.3c3.1-0.2,6.2-0.2,9.3,0c3.6,0.3,5.4,2.2,6.1,5.7c0.1,0.7,0.3,1.4,0.3,2.2
			c0,1.6,0,3.2,0,4.8C624.5,166.9,624.6,166.9,624.7,166.9z M619.8,166.9c0,0-0.1,0-0.1,0c0-0.6,0-1.2,0-1.7
			c-0.1-6.9-1.6-8.3-8.6-7.6c-0.1,0-0.1,0-0.2,0c-2.1,0.2-3.6,1.3-3.7,3.4c-0.2,3.9-0.2,7.8,0,11.7c0.1,2.1,1.7,3.2,3.8,3.2
			c2.8-0.1,6,1.1,7.9-2.1c0.3-0.5,0.4-1.1,0.5-1.7C619.6,170.4,619.7,168.7,619.8,166.9z"/>
		<path d="M477.7,161.5c-1.4,0-2.7,0-3.6,0c-0.9-1.4-1.6-3.4-2.5-3.6c-2.3-0.5-4.9-0.4-7.3,0c-1.8,0.3-1.4,2.3-1.4,3.7
			c0,1.5,0.9,2.3,2.2,2.5c2.4,0.4,4.8,0.6,7.1,0.9c2.2,0.3,4.8,0.6,5.6,3.1c1,3.1,1.2,6.5-0.6,9.5c-0.5,0.9-1.9,1.7-2.8,1.7
			c-4.2,0.2-8.4,0.2-12.6-0.1c-2.1-0.1-3.4-1.7-3.6-4c-0.1-1.1-0.1-2.2-0.2-3.4c1.5,0,2.9,0,4.3,0c0.7,4.1,0.9,4.2,5.2,4.3
			c0.9,0,1.7,0,2.6,0c3.1-0.2,3.9-1.2,3.6-4.3c-0.1-1.6-0.9-2.6-2.5-2.8c-2.4-0.3-4.8-0.6-7.1-0.9c-5.5-0.8-8.3-7.6-4.8-11.9
			c0.8-1,2.3-1.8,3.5-1.9c3.5-0.2,7-0.3,10.4,0C476.8,154.6,477.9,156.6,477.7,161.5z"/>
		<path d="M640,171.8c0.8,4.1,1,4.2,5.3,4.4c0.9,0,1.7,0,2.6,0c2.9-0.1,3.6-0.8,3.7-3.2c0.1-2.8-0.5-3.6-3.3-4.1
			c-2.6-0.4-5.3-0.7-8-1.2c-2.6-0.5-4-2.2-4.2-4.8c-0.1-1.2-0.1-2.5,0-3.7c0.4-3.2,1.7-4.7,5-5c2.8-0.2,5.7-0.3,8.5-0.1
			c5,0.4,6.2,2,5.9,7.3c-1.3,0-2.6,0-3.5,0c-1-1.4-1.7-3.3-2.7-3.5c-2.4-0.4-5-0.3-7.5,0.2c-0.6,0.1-1.1,2.5-1,3.8
			c0.1,0.8,1.3,2,2.2,2.2c2.3,0.6,4.7,0.7,7.1,1c4.8,0.7,6.1,2.1,6.1,7c0,1.1-0.1,2.2-0.2,3.3c-0.3,2.2-1.5,3.9-3.7,4
			c-4.3,0.2-8.6,0.3-12.8-0.1c-3.1-0.3-4-2.7-3.4-7.4C637.4,171.8,638.7,171.8,640,171.8z"/>
		<path d="M534.7,154.2c1.7,0,3.1,0,4.8,0c0,3.9,0,7.8,0,11.6c0,2.5,0,4.9-0.1,7.4c-0.2,4.1-1.6,5.9-5.7,6.3
			c-3.4,0.3-7,0.2-10.4-0.1c-2.9-0.2-4.6-2-4.7-4.9c-0.2-6.7-0.1-13.3-0.1-20.2c1.4,0,2.8,0,4.5,0c0,0.7,0.1,1.5,0.1,2.2
			c0,5.2,0,10.3,0.1,15.5c0.1,2.9,1.1,3.8,4,4c6.9,0.3,7.5-0.2,7.5-7.1C534.7,164.1,534.7,159.3,534.7,154.2z"/>
		<path d="M500.7,179.4c-1.8,0-3.1,0-4.8,0c0-7.1,0-14.2,0-21.6c-2.6,0-5,0-7.4,0c0-1.4,0-2.4,0-3.6c6.6,0,13,0,19.5,0
			c0,1.2,0,2.3,0,3.5c-2.4,0-4.7,0-7.3,0C500.7,165,500.7,172.1,500.7,179.4z"/>
		<path d="M590.2,179.4c-1.5,0-2.9,0-4.4,0c0-8.4,0-16.7,0-25.1c1.4,0,2.8,0,4.4,0C590.2,162.6,590.2,170.8,590.2,179.4z"/>
	</symbol>

	<symbol viewBox="0 0 352 143" id="gw">
		<path d="M305,143c-0.7,0-1.3,0-2,0c0-4.2,0-8.3,0-12.5c0-1.7-0.3-1.8-2-1c-8.1,4-16.5,4.3-25.1,2.4c-1.9-1.8-4.9-1.3-6.6-3.3
			c-0.4-0.5-1.3-1.1-1.1,0.1c0.3,2.4-1.1,2.2-2.7,2.2c-2.2,0-4.3,0-6.5,0c-2,0-4,0-6,0c-2.2,0-4.3,0-6.5,0c-2,0-4,0-6,0
			c-2.2,0-4.3,0-6.5,0c-2,0-4,0-6,0c-2.2,0-4.3,0.1-6.5,0c-1.9-0.1-3.9,0.7-5.7-0.7c-1.9,1.1-4,0.7-6,0.7c-29.3,0-58.6,0-87.9,0
			c-2,0-4,0-6,0c-0.6,0-1.7-0.2-1.7-0.4c-0.3-2.3-1-1.4-2.5-0.8c-7.3,3-13,4.3-21.7,2.3c-6.1-1.4-11.4-3.6-15.6-8.3
			c-1.2-1.4-2.7-2.5-3.8-3.9c-1.1-1.3-1.8-0.4-2.1,0.3c-1.3,2.8-2.3,5.7-3.6,8.5c-0.6,1.3-1.4,2.4-3.4,2.4c-9-0.2-18-0.1-27-0.1
			c-2,0-4.6,0.7-5.8-0.3c-1.7-1.3-2.7-3.8-3.2-6c-0.8-3.3-2.6-5.9-4-8.9c-0.4-0.8-1.2-1.6-1.3-2.5c-0.3-4.2-3.4-7.2-4.5-11.2
			c-1.1-4-3.4-7.6-5.1-11.3c-1.2-2.5-2.5-5-3.3-7.6c-0.9-2.6-2.5-4.9-3.3-7.7c-0.7-2.2-1.6-5-3.8-6.6c0-0.7,0-1.3,0-2
			c19.3,0,38.7,0,58,0c6.5,0,13,0,19.5,0c0.5,0,1.3-0.2,1.3-0.3c0-0.6,0-1.3-0.3-1.7c-3.6-4.8-5.3-10.4-5.3-16.3
			c0-5.5-0.6-11,0.8-16.6c0.8-3.2,1.7-6.3,3.2-9.2c2.1-4.3,5.5-7.4,9.8-9.2c3.5-1.5,7-2.7,10.9-2.7c2,0,4,0,6,0
			c5.7,0.1,10.8,1.5,15.3,5.4c4.1,3.6,6.5,6.6,8,11.6c0.1,0.3,0.3,0.6,0.4,0.8c0.2-0.2,0.5-0.3,0.7-0.5c1-1.4,2.1-2.8,2.9-4.3
			c4.4-8,8.7-16.1,13-24.1c0.3,0,0.7,0,1,0c0.1,0.6,0.1,1.3,0.4,1.8c2.8,5.2,5.7,10.3,8.5,15.5c1.9,3.5,3.7,7.1,5.7,10.6
			c0.5,0.8,1,1.7,1.6-0.3c0.9-2.8,2.6-5.3,3.9-7.9c2.4-4.8,4.8-9.7,7.3-14.5c0.3-0.5,0.9-0.8,1.4-1.2c0.1,0.4,0.2,0.9,0.4,1.3
			c2.7,5.2,5.3,10.5,8,15.7c0.1,0.3,0.3,0.5,0.5,0.8c0.2-0.2,0.4-0.5,0.5-0.7c1.5-3.4,2.9-6.8,4.5-10.1c1.1-2.4,2.6-4.6,3.9-6.9
			c1.2,2.4,2.5,4.7,3.7,7.1c2,4.2,4.1,8.3,5.9,12.5c0.5,1.1,0.5,1.4,1.3,0.4c0.8-0.9,2-1.5,2.4-2.5c0.6-1.6,1.6-2.9,3-3.7
			c2.6-1.6,5.6-2.8,8.2-4.4c2.9-1.8,6.5-1,9.4-2.6c5.8,0.7,11.3-1.3,17.1-1c2.4,0.1,2.5,0,2.7,2.6c0.1,1.4,0.7,2,1.8,1.1
			c4-3.3,9-3,13.5-3.5c6.6-0.7,13.3-0.1,20-0.2c1.7,0,1.8,0.6,1.8,2c-0.1,8.3-0.1,16.7,0,25c0.1,3.2,0.1,6.6,1.2,9.5
			c1.3,3.5,1.1,6.9,0.5,10.1c-0.6,3.2-1.4,6.8-4,9.3c-0.2,0.2-0.2,0.7-0.2,1c0.3,0,0.7,0.2,1,0.1c4-1.2,8.3-1,11.8-0.4
			c3.2,0.5,5.8,2.1,8.8,3c1.1,0.3,1.6,0.9,2-0.7c0.4-1.4,1.4-2,2.9-1.9c4.7,0.1,9.3-0.1,14,0.1c4.5,0.2,9-0.2,13.6,0.7
			c4.2,0.8,7.9,2.2,11.1,4.6c3.6,2.7,5.6,6.8,6.3,11.3c0.1,0.5,0.6,0.9,1,1.3c0,4,0,8,0,12c-0.3,0.3-1,0.5-1,0.8
			c0.1,1.7-0.6,2.9-1.5,4.4c-3.2,4.7-7.1,8.5-12.6,10.4c-1.2,0.4-2.1,0.8-2,2.6c0.3,4.1-0.1,8.3,0.2,12.4c0.1,1.9-0.9,2.5-2.2,3
			c-4.2,1.8-8.4,3.7-12.7,5.4c-4.3,1.7-8.3,4-12.8,5.2C306.5,141.4,305.8,142.4,305,143z M139,34c0.4-3,2.1-5.5,3.6-8
			c1.8-3.1,1.3-6.2,1.4-9.4c0-0.2-0.4-0.4-0.6-0.6c0,0-0.3,0.2-0.3,0.3c-0.4,0.7-0.7,1.4-1.1,2c-7,13.9-14,27.7-21,41.5
			c-0.7,1.4-0.9,3.5-3,4c0-0.3-0.1-0.7,0-1c1.8-5.4,0.7-11,0.9-16.6c0-0.5-0.5-1.4-0.8-1.4c-3.2-0.1-6.3-0.1-9.5,0
			c-0.2,0-0.6,0.4-0.6,0.6c0,0.4,0.1,1,0.4,1.3c0.3,0.3,1.3,0.2,1.3,0.4c0.1,2.1,0.1,4.2,0.1,6.3c-1.4,0.1-2.9,0.3-4.3,0.4
			c-1.5,0.1-3-0.1-4.5,0.1c-1.4,0.2-2.2-0.5-2.9-1.4c-1.2-1.5-2.2-3-2.2-5.1c0.1-2.8-0.1-5.7,0.1-8.5c0.1-2.5,1.2-4.2,3.7-5.5
			c2.6-1.3,4.3-0.2,6.1,0.9c1,0.6,2.1,1.5,2.3,3c0,0.5,1.1,1.4,1.8,1.4c2.1,0.2,4.3,0.2,6.5,0c0.5,0,1.5-1.2,1.3-1.6
			c-1.3-4.9-3.2-9.5-7.9-12.3c-1-0.6-1.9-1.3-2.9-2c0.5,0,1-0.1,1.5,0c2,0.6,1.1-1.6,2-2.1c0.1,0-0.2-1-0.5-1.3
			c-1.5-1.9-3.8-2.3-5.9-2.5c-2.9-0.2-5.7,0.1-8.6,0.8c-5.2,1.2-8.7,4.2-11.5,8.5c-3.2,4.9-2.9,10.5-3.9,15.9
			c-0.4,2.5,0.4,5.1,0.7,7.6c0.5,3.4,1.2,6.4,2.9,9.4c1.2,2.3,3,3.6,3.7,2.8c1.2-1.3,1-2.8-0.2-4.3c-2.4-3.3-2.2-7.4-3.1-11.2
			c-1-4,0.9-8,1-12C87,34,84.9,31.3,87,31c-0.3,2.5-0.8,5-1,7.6c-0.2,3.2,0.2,6.3-0.1,9.5c-0.2,2.4,0.5,4.6,1.3,6.5
			c2.7,6.3,5.5,9.1,13.8,9.4c5.7,0.2,11.3,0,17,0c-0.3,1-0.7,2-1,3c0,0.1-0.1,0.4,0,0.5c0.2,0.1,0.6,0.3,0.7,0.3
			c2.6-2.2,5.8-3.8,7.3-7.2c1.6-3.6,3.3-7.2,5.1-10.7c0.4-0.8,1.3-1.2,2-1.9c-0.1,0.6-0.1,1.3-0.4,1.8c-2.1,4.1-4.2,8.2-6.3,12.4
			c-0.7,1.3-0.4,1.8,1.1,1.8c6.8,0,13.6,0,20.5,0c3.9,0,3.9,0,26.2-38.8c0-1.8,0-3.1,0-4.4c0-0.2-0.3-0.5-0.5-0.7
			c-0.2,0.3-0.3,0.5-0.5,0.8c-2,4.5-4,9-6,13.4c-0.5,1.1-1.6,2-1.9,3.2c-1.5,6.2-5.7,11.3-7.5,17.3c-0.6,2-1.6,4-2.8,5.8
			c-1.3,1.9-1.1,4.4-2.8,6.1c-0.1,0.1,0,0.6,0.1,0.9c0.1,0.1,0.5,0.2,0.7,0.1c3.8-2,6.3-5.2,8-9c0.4-0.8,0.3-1.9,0.7-2.7
			c3.7-7.6,7.1-15.3,10.5-23c1.2-2.7,2.2-5.2-18.1,28.1c0.1-1.1-0.1-2.1,0.6-3.3c1.2-1.8,1.9-3.9,2.9-5.7c0.5-0.9,0.3-1.3-0.1-2.1
			c-3.9-7.7-7.7-15.5-11.5-23.2c-0.6-1.2-1-0.3-1.3,0.1c-0.7,1-1.1,2.2-1.8,3.2C141.1,31.4,141.1,33.5,139,34z M221,24
			c1.3-1.5,3.2-1.5,4.9-2c2.5-0.8,5-1.2,7.6-1c0.7,0.1,4.6-3.4,4.5-3.4c-1.2-0.3-2.5-0.3-3.8-0.6c-2.2-0.5-4.1,1.1-6.1,0.9
			c-2.2-0.2-4.1,0.7-6.1,1.2c-4.8,1.2-9,3.9-12.5,7.1c-4.5,4-5.9,9.8-6.5,15.7c-0.1,1.2-0.1,2.4,0,3.5c0.2,1.2,0.8,2.4,0.9,3.6
			c0.4,5.6,3.3,9.8,7.1,13.6c0.8,0.8,1.4,0.5,2.1-0.2c1.1-1.1,1.4-2.1,0.4-3.4c-1-1.2-2.9-1.9-2.5-4c1.7,1.5,3.4,3.1,5.1,4.6
			c0.6,0.5,1.2,1.1,1.9,1.4c4.6,1.7,9.4,2.4,14.2,3c1.1,0.1,1.9,0,1.8-1.5c-0.1-2.3-0.1-4.7,0-7c0-1-0.2-1.5-1.3-1.5
			c-1.2,0.1-2.4-0.2-3.5,0.1c-2.2,0.4-4.1-0.7-6.1-1c-1.6-0.3-2.1-1.2-2.1-2.8c0-2.2,1.5-4.1,3.7-4.2c2.5-0.1,5-0.1,7.5,0
			c1.7,0.1,1.8-0.7,1.8-2c0-4,0.1-4-3.8-4c-1.2,0-2.3,0.1-3.5,0c-1.4-0.2-2.8-0.4-4.1-1c-2-1-2.2-3.5-0.8-5.3c1.4-2,3.4-1.5,5.4-1.6
			c2.3-0.1,4.5-0.3,6.8-0.5c0-2.3,0.1-4.7,0-7c-0.1-2.2-1.4-3-3.7-2.3C227.2,23.1,224.2,24.1,221,24z M183,40c0,1.6,0,2.8,0,3.9
			c0,0.3,0.4,0.7,0.6,1c0.1-0.3,0.2-0.6,0.4-0.8c0.9-1.8,1.8-3.6,2.8-5.3c1-1.7,1-3.7,2.1-5.3c2.6-3.9,2.1-8.3,2-12.6
			c0-0.3-0.3-0.5-0.5-0.8c-0.2,0.3-0.3,0.5-0.5,0.8c-1.7,3.6-3.3,7.3-5,10.9c-1.3,2.8-2.7,5.5,11.6,32.3c2.7,0,5.3-0.1,8,0
			c1.6,0.1,1.5-0.9,1.4-1.9c0-0.4-0.4-0.8-0.6-1.3c-4.7-9.5-9.2-19.1-13.4-28.9c-0.1-0.3-0.2-0.6-0.3-0.9c-0.2,0.3-0.5,0.6-0.7,0.9
			c-1.3,2.7-2.7,5.3-3.8,8.1c-1.1,2.9-2.8,5.5-4.2,8.3c-0.2,0.5-0.5,1-0.7,1.4c-0.5-0.5-1.1-0.9-1.3-1.4c-0.5-1.1-0.5-2.5-1.1-3.5
			c-1.8-3.7-3.8-7.4-5.7-11.1c-0.3-0.5-0.5-1.1-0.7-1.7c-0.5,0.6-1.3,1.1-1.5,1.8c-1.4,3.8-3.1,7.4-5,10.9c-1.1,2-2.1,4.5-1.9,6.6
			c0.2,2.3,1.8,4.5,2.8,6.8c0.2,0.4,0.7,0.8,0.7,1.2c0.9,4.5,4,5.2,7.9,4.7c1.4-0.2,1.8-0.5,1.1-1.8c-1-1.8-2.1-3.4-3.1-5.2
			c-0.3-0.5-0.6-1.4-0.3-1.6c0.7-0.9,1.4-0.3,2,0.3c0.2,0.2,0.4,0.5,0.7,0.7c1.6,0.9,3.2,2.2,4.9,2.4c1.3,0.2,2.8-1.2,4.1-1.8
			c1.1-0.6,2.2-1.2,3.3-1.7c0.4-0.2,0.9-0.1,1.3-0.1c-0.1,0.4-0.2,0.7-0.3,1.1c-1,2.1-2.1,4.1-3.1,6.2c-0.4,0.8-0.3,1.6,0.9,1.6
			C190.9,64,193.7,64,183,40z M250,26c-0.2,0.7-0.4,1.5-0.7,2.2c-0.8,1.7-1.6,3.4-1.3,5.5c0.2,1.5,0.1,3,0,4.5
			c-0.1,2.2,0.6,4.1,2.2,5.6c1.6,1.5,2.9,3.6,5.5,3.6c0.7,0,1.4,0.6,2.1,1c1.6,1,1.4,2.6,1.1,4c-0.2,1-1.2,1.8-2.6,1.7
			c-1.8-0.1-3.7,0-5.5,0c-2.5,0-5,0.1-7.4,0.1c-0.1,2.6-0.2,5.2-0.4,7.8c-0.1,1.4,0.1,2.1,1.8,2.1c4.5-0.1,9,0.2,13.5-0.1
			c6.7-0.4,14.1-5.6,12.8-13.1c-0.2-1,0.1-2-0.1-3c-0.5-2.9-2.3-7.9-6-9.4c-1.1-0.5-2.1-1.3-3.1-2.1c-1.4-1.1-1-2.7-0.6-4
			c0.4-1.1,1.6-1.4,2.9-1.3c1.8,0.1,3.7,0,5.5,0c1.1,0,1.4-0.5,1.3-1.5c-0.1-2.5-0.2-4.9-0.3-7.4c-2.3-0.1-4.6-0.1-6.9-0.2
			c-1.2,0-2.3,0-3.5,0c-2.8,0-5.3,0.6-7.4,2.6c-0.4,0.4-1.2,0.3-1.8,0.4c0.8-1,1.5-2.4,2.5-2.9c1.5-0.7,3.3-1,5-1.1
			c3.5-0.2,7-0.3,10.5,0c2.2,0.2,3.4-0.8,4.6-2.2c0.3-0.3,0.5-1,0.3-1.3c-0.1-0.3-0.8-0.6-1.2-0.6c-4.8,0-9.6,0-14.5,0
			c-8.1-0.1-16,8.5-15.3,15.2c0.1,1.3-0.4,2.6-0.4,3.8c0,1.4,0.4,2.9,0.4,4.3c-0.1,2.7,1.3,4.5,3.1,6.2c0.8,0.8,1.4,0.5,2.1-0.2
			c0.7-0.7,1.4-1.4,0.4-2.4c-1.8-1.8-1.2-4.4-2.3-6.5c-1.2-2.4,0.7-4.9,1-7.5C247.3,28.6,247.9,26.5,250,26z M81,115
			c0.5,0,1.2-0.2,1.5,0c2.8,3.1,6.3,4.4,10.3,5.4c4.5,1.2,8.4,0.1,12.5-1.1c3.1-1,5-3.3,7.3-5.3c4.2-3.7,5.2-8.8,6.4-13.8
			c0.5-2.2-0.6-4.1-1.1-6.1c-1.2-5.5-4.2-9.9-8.9-13c-1.8-1.2-3.7-2.6-5.7-2.9c-2.1-0.3-4-0.9-6.1-1.1c-1.7-0.1-3.4,0.6-5.1,0.9
			c-3.6,0.7-7,1.8-9.5,4.8c-0.8,1-1.8,1.9-2.8,2.8c-2.8,2.6-4.2,6.1-4.7,9.5c-1,6.1,0.1,12.1,4.5,17.1c0.4,0.4,0.3,1.2,0.4,1.8
			c-0.3-0.1-0.6-0.2-0.8-0.4c-5.9-5.7-6.3-13.1-4.8-20.2c1.5-7.5,8.3-15.9,17-16.4c2.3-2,5-0.7,7.6-1c2.6-0.3,4.8,1.2,7.2,2
			c1,0.3,2,0.8,3.1,1c0.6,0.1,1.6-0.2,1.7-0.4c0.2-0.7,0.1-1.6-0.2-2.3c-0.2-0.5-0.9-0.9-1.5-1.2c-5.9-3.1-13-3.7-19.3-2.1
			c-6.6,1.6-11.5,5.5-15.5,10.5c-2.1,2.6-3.6,6-4.1,9.2c-0.7,4.2-1,8.8,0.1,12.9c1.2,4.4,3,9,6.8,12.1c2,1.6,4,3.2,5.9,5
			c1.1,1,1.8,0.3,2.4-0.4c1-1.2,0.7-2.1-0.4-3.1C83.6,117.7,82.3,116.3,81,115z M31.8,87.2c0.1,0,0.1,0,0.2,0c0-2.7,0-5.3,0-8
			c0-0.4-0.7-1.2-1-1.2c-3.7-0.1-7.3-0.1-11,0c-0.3,0-1,1-0.9,1.3c1.4,3.6,2.8,7.2,4.5,10.6c2.3,4.9,4,10.1,6.4,15.1
			c2.1,4.6,3.9,9.4,6.2,13.9c0.2,0.4,0.8,1,1.2,1c1.7,0.2,3.2,0.1,3.8-2.1c0.7-2.5,2.9-4.4,3-7.3c0-0.5,0.9-1.4,1.2-1.4
			c0.6,0.2,1.4,0.7,1.7,1.3c1.4,2.6,2.9,5.1,3.9,7.9c0.4,1.2,0.7,1.5,1.9,1.5c1.6,0,2.6-0.4,3.3-2.1c1.5-3.6,3.9-6.8,4.8-10.5
			c1.2-4.9,3.6-9.2,5.4-13.8c1.8-4.5,3.6-9.2,5.8-13.6c1-2,0.9-2.1-1.3-2.1c-2.8,0-5.7,0.1-8.5,0c-1.6-0.1-2.4,0.1-2.3,2.1
			c0.2,4.2,0.1,8.3,0,12.5c0,0.8-0.1,1.7-0.4,2.3c-0.2,0.4-0.9,1.9-1.7,0.5c-2.8-4.6-7.1-7.7-10.6-11.6c-0.8-0.9-1.5-1.1-2.4-0.1
			c-2.1,2.2-4.2,4.3-6.3,6.4c-2,2-4,4-6,6c-0.2-2.9-0.5-5.8-8.6-23c-3.8,0-7.7,0-11.5,0c-1.4,0-1.7,0.5-1.1,1.8
			c1.8,4.1,3.5,8.2,5.3,12.3c2.7,6,5.7,12,8,18.2c1,2.8,2.5,5.3,3.5,8.1c1.2,3.3,2.6,6.6,4,9.8c0.1,0.3,0.6,0.7,0.7,0.6
			c0.9-0.4,1.9-2.9,1.6-3.8c-0.8-2.7-2-5.1-3.3-7.6c-1.1-2.2-1.1-4.9-2.4-6.9c-1.3-2-1.3-4.2-2.6-6.2c-1.3-2-2.1-4.4-3.1-6.7
			c-1.9-4.5-3.7-9.1-5.7-13.6c-0.6-1.3-0.4-1.8,1-1.8c3.7,0,7.4-0.3,11,0.1c3,0.4,4.6-1.3,6.2-3.1c0.2-0.2,0.2-0.5,0.2-0.7
			c-0.3-0.1-0.6-0.2-0.9-0.3C31.2,73,27.5,73,31.8,87.2z M267,111c-0.5-0.4-1.2-0.6-1.5-1.1c-2.5-3.8-3.1-12.4-1.8-17.2
			c1.6-5.9,5.2-10,10.2-13.2c1.5-0.9,2.8-2,4.5-2.5c6.2-1.7,10.7-1.7,16.7,1c1.2,0.5,2.2,1.2,3.6,1c1.1-0.1,1.7-1,1.3-2
			c-0.3-0.7-0.8-1.5-1.4-1.9c-2.9-1.6-6-2.8-9.2-3c-9.2-0.7-17.5,1.8-23.7,8.9c-4,4.6-7,9.8-6.6,16.2c0.1,1.7,0,3.3,0,5
			c0,1.3,1.3,5.6,1.9,7.2c2.1,5.8,6.4,9.8,11.3,13.3c0.9,0.7,1.4,0.2,2.1-0.4c1.7-1.6,0.4-2.9-0.2-4.3c2.7,0.1,4.8,1.9,7.6,2.3
			c5.2,0.8,7.8,0.7,12.9-1.1c3.4-1.3,5.5-3.9,8-6.1c3.9-3.4,4.8-8,5.5-12.7c0.7-5.1-1.2-9.8-4.1-13.7c-3.9-5.3-9.3-8.8-16.3-8.6
			c-2,0-4,0-6,0c-0.8,0-1.6,0-2.4,0.3c-6.6,2.7-11.6,7-13.9,13.9c-1.2,3.7-2.5,7.6-0.3,11.6C264.2,106.6,267.2,108.4,267,111z
			 M125,99.1c0,5,0,10,0,15c0,1.9,0.3,3.9,0.4,5.8c2,0,4,0,6,0.1c1.3,0.1,1.7-0.4,1.7-1.7c-0.1-4.2,0-8.3-0.1-12.5
			c0-1.1,0.3-2,1.2-2.5c2.6-1.6,5.8,0,5.8,3c0,4,0,8,0,12c0,0.8-0.1,1.7,1.1,1.7c3.7,0,7.3,0,11,0c1.1,0,0.6-0.5,0.3-1.1
			c-2.6-5.1-5.8-10-8.8-14.8c-0.5-0.9-0.9-1.8-1.3-2.8c0.8-0.1,1.7,0,2.3-0.4c1.9-1,4-1.6,5.6-3.4c2.1-2.3,4.2-4.5,3.7-6.3
			c-0.7-2.5-0.6-5.1-2.5-7.5c-3.4-4.2-8-5-12.7-5.6c-3.9-0.5-8,0-12-0.1c-1.3,0-1.7,0.3-1.7,1.7C125,86.1,125,92.6,125,99.1z
			 M257,99c0-5,0-10,0-15c0-1.9-0.2-3.9-0.3-5.8c-2-0.1-4,0-5.9-0.2c-1.8-0.2-1.8,0.8-1.8,2.1c0.1,3.7,0.1,7.3,0,11
			c0,2.2-0.8,2.9-2.9,3c-3.3,0.1-6.7,0.1-10,0c-0.4,0-1.1-0.7-1.1-1.1c-0.1-3.2-0.2-6.3,0-9.5c0.3-6.1-1-5.5-5.5-5.4
			c-1.9,0-3.2,1-3.5,2.9c-0.1,0.8,0,1.7,0,2.5c0,10.8,0,21.6,0,32.4c0,0.8-0.2,1.7,0.1,2.5c0.3,0.7,1,1.6,1.6,1.7
			c2.3,0.2,4.6,0,6.9,0c0.1-1.8,0.3-3.5,0.4-5.3c0-0.5,0-1,0-1.5c0.1-3.3,0.2-6.6,0.3-9.9c3.5-0.1,6.9-0.1,10.4-0.2
			c0.3,0,0.7-0.1,1,0c1.4,0.3,2.4,0.9,2.3,2.5c0,2.8,0,5.7,0,8.5c0,1.9,0.2,3.9,0.3,5.8c2,0,4,0,5.9,0.2c1.8,0.2,1.7-0.8,1.7-2.1
			C257,111.6,257,105.3,257,99z M201.3,120c2.2,0,4.3,0,6.5,0c2.2-0.1,6.5-2,8.1-3.4c3.8-3.5,5-8,4-12.7c-0.8-3.5-2-7.4-6.2-8.9
			c-1-0.4-1.8-1.3-2.7-2c-2.4-1.8-2.4-3.3-0.4-5.2c1.3-1.3,2.8-0.6,4.2-0.8c1.8-0.2,1.8-0.1,2.6-2c0.9-2.1,1.7-4.3,2.6-6.4
			c-2.2-1.5-4.7-0.4-7.1-0.6c-1.6-0.2-3.4-0.3-5,0c-2.4,0.6-4.9,1.2-6.9,2.6c-2.1,1.4-3.3,3.5-4.2,6.2c-1,3.1-0.4,5.7,0,8.7
			c0.7,4.2,2.8,6.5,6.7,7.5c0.7,0.2,1.4,0.6,2.1,1c3.1,1.6,3.2,2.6,0.9,5c-1,1-1.9,1-3.1,1c-4.5,0-9,0-13.5,0c-0.4,0-1.1,1-1,1.2
			c1.3,2.8,2.6,5.6,4,8.3c2.4,0.2,4.9,0.3,7.3,0.4C200.7,120,201,120,201.3,120z M314,102.7c0,6.5,0,13,0,19.5c0,1-0.1,2,0.1,3
			c0.1,0.4,1.2,0.9,1.3,0.8c2-1.7,4.6-1.8,6.8-2.9c1.3-0.7,1.9-1.5,1.9-3c-0.1-4,0-8,0-12c0-1.2-0.4-2.6,0.1-3.4
			c0.4-0.6,2.3-0.1,3.1-0.7c1.2-0.8,2.4-0.6,3.6-1c1.9-0.6,3.8-1.5,5.3-2.7c1.5-1.3,3.5-3.1,3.6-4.9c0.2-3.1,0.8-6.4-0.5-9.7
			c-2.2-5.5-6.4-7.3-11.7-7.6c-3.3-0.2-6.7-0.1-10,0c-3.2,0-3.6,0.4-3.6,3.7C314,88.7,314,95.7,314,102.7z M160,99
			c0,6.3,0,12.6,0,19c0,0.6,0.2,1.8,0.3,1.8c2.1,0.1,4.2,0.1,6.3,0c0.1,0,0.3-0.9,0.3-1.3c0-4.7,0-9.3,0-14c0-1,0.2-1.6,1.3-1.5
			c1,0.1,2,0.1,3,0c1.2-0.1,1.8,0.2,1.7,1.6c-0.1,4.2-0.1,8.3,0,12.5c0,2.2,0.8,2.9,2.9,2.9c2.8,0.1,5.7,0,8.5,0
			c1.7,0,1.9-0.4,1.1-2c-2.9-5.9-5.8-11.9-8.9-17.8c-0.7-1.3-0.7-2.1,0-3.5c2.5-4.3,4.8-8.6,7.1-13c3-5.7,2.9-5.7-3.3-5.7
			c-1.5,0-3,0-4.5,0c-2.1,0.1-2.9,0.8-2.9,2.9c-0.1,3.7-0.2,7.3,0,11c0.1,2-0.7,2.3-2.3,2.1c-0.8-0.1-1.7-0.1-2.5,0
			c-1.2,0.1-1.3-0.5-1.3-1.5c0-4.3,0-8.6,0-13c0-0.5-0.2-1.3-0.3-1.3c-2.1-0.1-4.2-0.1-6.3,0c-0.1,0-0.3,1.2-0.3,1.8
			C160,86.4,160,92.7,160,99z M215.4,73c-0.8,0-1.7,0-2.5,0c-4.3,0.1-8.5-0.1-12.7,1.8c-2.9,1.3-4.6,3.1-6.3,5.5
			c-3.4,4.8-3.3,10.3-2.9,15.7c0.2,2,1.4,4,2.4,5.9c0.3,0.6,1.4,1.1,2,1c0.6-0.2,1.3-1.1,1.4-1.8c0.1-0.7-0.3-1.5-0.6-2.2
			c-1.7-4.5-2-8.9-0.4-13.5c1.7-4.9,6.2-8.4,11.4-8.4c4.2,0,8.3,0,12.5,0c1.1,0,6.3-3,6-3.3c-1.4-1.5-3.3-0.4-4.9-0.6
			C219.1,72.8,217.3,73,215.4,73z M252.2,73c-2,0-4,0-6,0c-3.2,0-3.2,0-3.2,3c0,3.3,0,6.6,0,10c0,0.7,0.3,1.4-0.7,2.1
			c-1.5,1-2.7,2.4-4.1,3.6c1.8,0.1,3.6,0.2,5.4,0.3c0.8,0,1.7-0.1,2.5,0c1.4,0.2,2.1-0.2,2-1.8c-0.1-3.5-0.1-7,0-10.5
			c0-2.7,0-2.7,2.5-2.7c2,0,4,0,6,0c0.7,0,4.6-3.4,4.5-3.5c-1.2-0.3-2.5-0.5-3.8-0.5C255.5,72.9,253.9,73,252.2,73z M132.1,73
			c-3.5,0-7,0-10.5,0c-0.5,0-1.6,0.5-1.5,0.6c0.7,3.9-1.8,8.2,1.8,11.8c0.8,0.8,0.8,2.3,1.2,3.5c0.1,0.3,0.4,0.6,0.6,0.9
			c0.1-0.3,0.3-0.6,0.3-0.9c0-3.2,0-6.3,0-9.5c0-2.5,0-2.5,2.3-2.5c5.7,0,11.3,0,17,0c0.6,0,1.6-0.3,1.6-0.5c0.1-0.7,0-1.6-0.3-2.3
			c-0.5-0.9-1.4-1.2-2.5-1.2C138.7,73.1,135.4,73,132.1,73z M66.5,73c-3.8,0-7.6,0.2-11.4-0.1c-2-0.1-2,0.7-2.1,2.3
			c-0.5,5.3,2.9,9.5,4.1,14.3c0,0.1,0.4,0.2,0.7,0.3c0.1,0,0.3-0.2,0.3-0.4c0-0.8,0-1.7,0-2.5c0-3.2,0-6.3,0-9.5
			c3.3-0.2,6.5-0.6,9.8-0.4c3.9,0.2,7.3-0.4,10.2-3.1c0.3-0.2,0.6-0.5,0.8-0.7c-0.3-0.1-0.6-0.3-0.9-0.3C74.1,73,70.3,73,66.5,73z
			 M319.6,73c-3.2,0-6.3,0-9.5,0.1c-0.4,0-1.1,0.7-1.1,1.1c-0.6,5.1,0.3,9.8,3,14.2c0.1,0.2,0.4,0.3,0.6,0.5
			c0.1-0.3,0.4-0.6,0.4-0.8c0-3,0.2-6,0-9c-0.2-2,0.7-2.1,2.3-2.1c4.8,0.1,9.7,0,14.5,0.1c1.7,0,1.4-1.2,1.2-2
			c-0.3-1.5-1.3-2.1-2.8-2C325.3,73.1,322.5,73,319.6,73z M112.2,40c-2.5,0-5,0-7.5,0c-2.8,0-2.8,0-2.8,3c0,1.2-0.1,2.3,0,3.5
			c0.3,3.5,2.8,6.3,5.9,6.5c0.3,0,0.8-0.2,0.8-0.3c0-1.2-0.2-2.5-0.3-3.7c-2.5,0.1-1.3-1.7-1.5-2.8c-0.3-1.6,0-2.4,2-2.3
			c2.8,0.2,5.6,0.1,8.4,0c0.7,0,4.6-3.4,4.5-3.4c-1.2-0.3-2.5-0.5-3.8-0.5C116.2,39.9,114.2,40,112.2,40z M182.5,73
			c-1.8,0-3.7,0-5.5,0c-2,0.1-3.9,0.2-5.9,0.3c0,1.8-0.1,3.6-0.1,5.4c0,4,0,8,0,12c0,0.4,0.3,0.8,0.5,1.2c0.1-0.4,0.3-0.9,0.4-1.3
			c0.1-0.3,0-0.7,0-1c0-3.7,0.1-7.3,0-11c0-1.3,0.4-1.7,1.7-1.7c2.8,0.1,5.7-0.1,8.5,0.1c3.7,0.3,7-0.4,9.8-3
			c0.3-0.3,0.6-0.4,0.9-0.7c-0.3-0.1-0.6-0.3-0.9-0.3C188.8,73,185.7,73,182.5,73z M238,57.8c0,1.8-0.1,3.7,0,5.5
			c0.1,1.3,0.3,2.5,0.5,3.8c0.9-0.9,1.9-1.9,2.8-2.8c1.3-1.2,0.6-2.8,0.6-4.2c0.1-2.1,0-4.3,0-6.5c2.2-0.2,4.5-0.3,6.7-0.5
			c0.3,0,0.6-0.1,0.9-0.2c0.1,0,0.1-0.6,0-0.7c-1.7-1.1-3.1-2.9-5.2-3.1c-6.4-0.7-6.5-0.7-6.5,5.7C238,55.8,238,56.8,238,57.8z
			 M313,118.3c0-2.8,0-5.6,0-8.5c0-0.3-0.3-0.5-0.5-0.8c-0.1,0.1-0.3,0.2-0.3,0.4c-0.6,2.7-3.1,4.7-3.1,7.7c0,4.6,0,9.3,0,13.9
			c0,0.3,0.2,0.6,0.3,0.9c0.2-0.1,0.6-0.2,0.7-0.4c1.2-2.3,3.6-4.1,3.1-7.2C312.7,122.3,313,120.3,313,118.3z M162,73
			c-1.2,0-2.3,0-3.5,0c-1.1,0-3.1,0-3.2,0.3c-0.3,1.7-0.5,3.6-0.1,5.3c0.4,1.4,1.8,2.6,2.7,3.8c0.1,0.2,0.5,0.3,0.7,0.4
			c0.1-0.3,0.3-0.6,0.3-0.9c0.1-1.6-0.3-3.9,0.5-4.7c0.9-0.8,3.1-0.3,4.8-0.3c0.3,0,0.7,0,1,0c1.6-0.1,3.3-1.6,3.5-3.3
			c0-0.2-0.5-0.7-0.7-0.7C166,73,164,73,162,73z M45.2,77.7c-0.2-1.2-0.5-2.5-0.7-3.7c-0.8,0.8-1.7,1.6-2.4,2.5
			c-1.1,1.3-2.1,2.8-3,4.2c-1.7,2.7-2,6.2-4,8.8c-0.2,0.2,0.2,0.9,0.3,1.3c0.2-0.1,0.5-0.2,0.7-0.4c2.1-2.1,4.1-4.3,6.4-6.3
			C44.4,82.4,45.6,80.5,45.2,77.7z M159,107.3c0-2.8,0-5.6,0-8.5c0-0.2-0.7-0.5-0.8-0.4c-1.1,1.2-2.9,2.4-3,3.7
			c-0.4,4.4-0.7,9,2.3,12.9c0.3,0.4,0.7,0.7,1,1.1c0.2-0.4,0.5-0.8,0.5-1.3C159,112.2,159,109.7,159,107.3z M247,113.5
			c0-1.8,0-3.6,0-5.5c0-0.3-0.2-0.6-0.3-0.8c-0.2,0.1-0.5,0.2-0.7,0.4c-1.9,1.6-3.5,3.3-3,6.2c0.3,2.1,0,4.3,0.1,6.5
			c0,1.2,0.3,2.5,0.5,3.7c1.2-1.3,2.4-2.7,3.4-4.1c0.2-0.3,0-1,0-1.5C247,116.8,247,115.1,247,113.5z M124,114c0-0.8,0-1.7,0-2.5
			c-0.1-1.1-0.2-2.2-0.3-3.3c-0.3,0.9-0.7,1.8-1.1,2.7c-0.3,0.7-0.5,1.6-1.1,2c-1.5,1.2-1.7,2.7-1.5,4.4c0.1,1,0,2,0,3
			c0.1,1.2,0.3,2.5,0.5,3.7c0.8-0.8,1.6-1.7,2.5-2.4c0.9-0.7,1.1-1.5,1-2.6C124,117.3,124,115.6,124,114z M193.6,109
			c1.5,0,3,0,4.5,0c0.3,0,0.6-0.2,0.8-0.4c-0.2-0.2-0.3-0.5-0.5-0.7c-3.3-3.4-7.5-3.1-11.7-2.9c-0.1,0-0.3,0.6-0.2,0.9
			c0.7,1.9,1.7,3.4,4.1,3.1C191.6,108.9,192.6,109,193.6,109z M232.1,77c2.7,0.9,4.6-0.8,6.4-2.9c0.2-0.2,0.3-0.5,0.4-0.7
			c-0.3-0.1-0.6-0.3-0.9-0.3c-2.2,0-4.4,0.3-6.5-0.1c-2.3-0.4-2.5,1.5-3.4,2.5c-0.5,0.6-0.2,1.6,1,1.5C230,77,230.8,77,232.1,77z
			 M225,91.1c0-1.3,0.1-2.7,0-4c0-0.7-0.4-1.4-0.6-2c-0.3,0.7-0.6,1.4-1.1,2c-0.8,1,0.2,2.5-1.2,3.6c-0.6,0.4-1.5,2.3,0.4,3.4
			c0.9,0.6,1.4,1.9,2.1,2.8c0.1-1.3,0.3-2.5,0.4-3.8C225,92.4,225,91.8,225,91.1z M225,118.4c0-0.5,0.1-0.9,0-1.2
			c-0.1-0.4-0.3-0.9-0.5-1.3c-0.2,0.4-0.3,0.9-0.5,1.3c-0.4,0.5-0.9,0.9-1.2,1.5c-0.8,1.3-1.9,2.5-1.7,4.2c0,0.3,0.4,0.6,0.6,0.9
			C223,122.1,225.7,121.2,225,118.4z M136.9,112.8c0.6,2.8-0.7,5.5,0.8,8.1c0.1-2.6,0.4-5.2,0.3-7.8c-0.1-2.3,0.7-4.7-0.6-6.8
			C137.2,108.4,137,110.7,136.9,112.8z M172.1,113.2c-0.2-2.2-0.3-4.6-0.5-7.1c-1.4,2.4-0.5,4.9-0.6,7.4c-0.1,2.4,0.2,4.9,0.3,7.3
			C172.8,118.5,171.6,115.9,172.1,113.2z M230,50.9c-1.6,0.5-3.4-0.5-4.9,0.8c1.6,0.1,3.2,0.4,4.8,0.3c1.3-0.1,2.8,0.8,3.9-0.6
			C232.6,51.2,231.3,51,230,50.9z M229.7,36.9c-1.6,0.6-3.2-0.8-4.5,0.8c1.4,0.1,2.9,0.4,4.3,0.3c1.1-0.1,2.4,0.7,3.3-0.6
			C231.7,37.2,230.6,37,229.7,36.9z"/>
		<path d="M288,90c0.1,1.3-0.4,2.6,1,3.5c3,1.9,1.9,5,1.9,7.6c0,2-2.3,2-3.6,2.7c-1,0.6-2.9,0.1-4.2-0.3c-0.8-0.2-1.3-0.9-2.1-0.1
			c-0.8,0.7-1.4,1.4-1.1,2.5c0.2,0.7,0.6,1.4,1,2.1c-2.6-0.5-3.5-1.4-4-4c0.5-1,1.9,2.9,2-0.3c0-0.1,0.1-0.3,0.2-0.4
			c0.4-0.6,0.8-2.7,0.8-3.8c-0.2-4,1-6.1,4.5-7.4C286.5,92.9,286.6,90.3,288,90z"/>
		<path d="M274,118c-0.6-0.1-1.4,0-1.8-0.4c-1.7-1.5-3.3-3.2-4.8-4.8c-0.4-0.4-0.3-1.2-0.4-1.8C269.3,113.3,271.7,115.7,274,118z"/>
		<path d="M277,104c-0.6-0.5-1.8-0.9-1.8-1.4c0-2.9,0.2-5.7,0.3-8.6c0,0,0.3,0,0.5,0c0,1.7-0.1,3.3,0,5
			C276.2,100.7,276.7,102.3,277,104z"/>
		<path d="M281,89c2.4-1.6,4-2.1,5.7-1.8c0.2,0,0.2,0.5,0.3,0.8C284.9,88,283.2,89.7,281,89z"/>
		<path d="M292,90c-1.3,0-2.7,0-4,0c-0.3-0.7-0.7-1.3-1-2C289,87.9,290.8,88.1,292,90z"/>
		<path d="M296,96c1.4,1.6,1.4,3.4,0,5C296,99.3,296,97.7,296,96z"/>
		<path d="M294,92c2.2,0.6,2.1,2.3,2,4C294.7,95,293.9,93.7,294,92z"/>
		<path d="M276,94c-0.2-1.6,0.4-2.6,2-3C278.2,92.6,277.6,93.6,276,94z"/>
		<path d="M278,91c0.4-1.6,1.4-2.2,3-2C280.6,90.6,279.6,91.2,278,91z"/>
		<path d="M296,101c-0.4,1,0.9,2.5-1,3C295.4,103,294.1,101.5,296,101z"/>
		<path d="M281,108c1,0.4,2.5-0.9,3,1C283,108.6,281.5,109.9,281,108z"/>
		<path d="M288.6,107.8c0.5,0.2,0.9,0.4,1.3,0.6c-0.7,0.2-1.3,0.5-2,0.5c-0.3,0-0.6-0.3-0.9-0.4
			C287.5,108.3,288.1,108.1,288.6,107.8z"/>
		<path d="M287,109c-1,1.4-2,1.4-3,0C285,109,286,109,287,109z"/>
		<path d="M292,107.4c-0.2,0.2-0.4,0.3-0.6,0.5c-0.1-0.2-0.2-0.6-0.2-0.6c0.2-0.2,0.5-0.2,0.8-0.3C292,107.1,292,107.3,292,107.4z"
			/>
		<path d="M293,106c-0.3,0.3-0.7,0.7-1,1C292.3,106.7,292.7,106.3,293,106z"/>
		<path d="M294,105c-0.3,0.3-0.7,0.7-1,1C293.3,105.7,293.7,105.3,294,105z"/>
		<path d="M295,104c-0.3,0.3-0.7,0.7-1,1C294.3,104.7,294.7,104.3,295,104z"/>
		<path d="M293,91c-0.3-0.3-0.7-0.7-1-1C292.3,90.3,292.7,90.7,293,91z"/>
		<path d="M294,92c-0.3-0.3-0.7-0.7-1-1C293.3,91.3,293.7,91.7,294,92z"/>
		<path d="M86,101c-1.2-2-1.4-3.9-0.5-6c0.3-0.8,1-1.4,1.5-2C87.1,95.7,85.3,98.2,86,101z"/>
		<path d="M100,108c-0.3,0.3-0.5,0.9-0.8,1c-2.1,0.1-4.3,0.1-6.4,0c-0.3,0-0.5-0.6-0.8-1C94.7,108,97.3,108,100,108z"/>
		<path d="M106,94c0.3,0.3,0.9,0.5,1,0.8c0.1,2.1,0.1,4.3,0,6.4c0,0.3-0.6,0.5-1,0.8C106,99.3,106,96.7,106,94z"/>
		<path d="M92,108c-2.2,0.2-3.1-1.4-4-3c0.7-0.3,1.3-0.7,2-1c0.2,0.7,0.3,1.5,0.7,2.1C91,106.8,91.5,107.4,92,108z"/>
		<path d="M87,93c0.5-2.6,1.4-3.5,4-4C89.7,90.3,88.3,91.7,87,93z"/>
		<path d="M93,88c1.9-1.4,4.1-1.4,6,0C97,88,95,88,93,88z"/>
		<path d="M104,91c1.6,0.4,2.2,1.4,2,3C104.4,93.6,103.8,92.6,104,91z"/>
		<path d="M101,89c1.6-0.2,2.6,0.4,3,2C102.4,91.2,101.4,90.6,101,89z"/>
		<path d="M99,88c0.8,0.2,1.9-0.5,2,1c-1,0.3-2,0.7-3,1C98.3,89.3,98.7,88.7,99,88z"/>
		<path d="M102,107c-0.1,1.5-1.2,0.8-2,1C100.1,106.5,101.2,107.2,102,107z"/>
		<path d="M88,105c-1.5-0.1-0.8-1.2-1-2C88.5,103.1,87.8,104.2,88,105z"/>
		<path d="M106,102c-0.2,0.8,0.5,1.9-1,2C105.2,103.2,104.5,102.1,106,102z"/>
		<path d="M87,103c-1.5-0.1-0.8-1.2-1-2C87.5,101.1,86.8,102.2,87,103z"/>
		<path d="M91,89c0.1-1.5,1.2-0.8,2-1C92.9,89.5,91.8,88.8,91,89z"/>
		<path d="M81,115c-0.3-0.3-0.7-0.7-1-1C80.3,114.3,80.7,114.7,81,115z"/>
		<path d="M103,106c-0.3,0.3-0.7,0.7-1,1C102.3,106.7,102.7,106.3,103,106z"/>
		<path d="M104,105c-0.3,0.3-0.7,0.7-1,1C103.3,105.7,103.7,105.3,104,105z"/>
		<path d="M105,104c-0.3,0.3-0.7,0.7-1,1C104.3,104.7,104.7,104.3,105,104z"/>
		<path d="M92,24c5.1-3.7,9.9-4.1,15-1c-2.7,0-5.3-0.1-8,0C96.7,23.2,94.3,23.7,92,24z"/>
		<path d="M87,31c-0.4-2.5,0.9-4,3-5c0,0.3,0.1,0.7,0,0.9C89,28.3,88,29.6,87,31z"/>
		<path d="M90,26c0.3-0.3,0.7-0.7,1-1C90.7,25.3,90.3,25.7,90,26z"/>
		<path d="M91,25c0.3-0.3,0.7-0.7,1-1C91.7,24.3,91.3,24.7,91,25z"/>
		<path d="M135.9,94c-0.3,0-2.4,0.1-2.6-0.4c-0.6-1.4-0.3-3.2-0.2-4.8c0-0.3,0.6-0.7,1-0.7c1.6-0.1,3.4-0.4,4.9,0.1
			c1.2,0.4,2.3,1.6,3,2.8c0.7,1.1-0.6,2.9-2.1,3.1C138.9,94.1,137.9,94,135.9,94z"/>
		<path d="M250,26c0.3-0.3,0.7-0.7,1-1C250.7,25.3,250.3,25.7,250,26z"/>
		<path d="M324,91.2c0-0.7,0-1.3,0-2c0-2,1.1-2.8,3.1-2.2c1.5,0.4,2.9,2.5,2.9,4c0,1.6-1.5,3.6-3,4c-2,0.5-3-0.2-3-2.3
			C324,92.2,324,91.7,324,91.2z"/>
		<path d="M211,55c-1.8-0.5-2-1.8-2.1-3.4c0-0.5-1-1.2-0.9-1.6c0.6-2.4-1.2-4.3-1.1-6.6c0.2-3.3,1-6.5,2.1-9.6
			c1.2-3.3,4.1-5.4,6.5-7.8c0.2-0.2,1,0,1.5,0c-1.2,1.3-2.3,2.7-3.5,4c-3.1,3-4.6,6.5-4.6,11C208.9,45.8,209.3,50.5,211,55z"/>
		<path d="M217,26c0.1-1.5,1.2-0.8,2-1C218.9,26.5,217.8,25.8,217,26z"/>
		<path d="M219,25c0.1-1.5,1.2-0.8,2-1C220.9,25.5,219.8,24.8,219,25z"/>
		<path d="M143.2,54c-1,0-2,0.1-3,0c-1.4-0.1-2.8-0.3-4.2-0.5c0.7-1.1,1.4-2.1,1.9-3.2c1.7-3.3,3.4-6.6,5.1-9.8
			c0.4-0.8,1.5-0.7,1.9,0.2c2,4,4,7.9,6,12c0.1,0.3-0.5,1.3-0.8,1.3C147.8,54.1,145.5,54,143.2,54z M142.6,53c2.2,0,3.3,0,4.5,0
			c0.3,0,0.5-0.3,0.8-0.4c-0.2-0.2-0.4-0.4-0.7-0.5c-1-0.4-2-0.7-3-1.3c-0.5-0.3-0.7-0.9-1.5-0.2c-0.8,0.7-1.8,1.2-2.7,1.8
			C141.3,52.7,142.4,52.9,142.6,53z"/>
		<path d="M138,36c0.2-0.8-0.5-1.9,1-2C138.8,34.8,139.5,35.9,138,36z"/>
		<path d="M137,38c0.2-0.8-0.5-1.9,1-2C137.8,36.8,138.5,37.9,137,38z"/>
		<path d="M136,40c0.2-0.8-0.5-1.9,1-2C136.8,38.8,137.5,39.9,136,40z"/>
		<path d="M132,48c0.2-0.8-0.5-1.9,1-2C132.8,46.8,133.5,47.9,132,48z"/>
		<path d="M133,46c0.2-0.8-0.5-1.9,1-2C133.8,44.8,134.5,45.9,133,46z"/>
		<path d="M134,44c0.2-0.8-0.5-1.9,1-2C134.8,42.8,135.5,43.9,134,44z"/>
		<path d="M135,42c0.2-0.8-0.5-1.9,1-2C135.8,40.8,136.5,41.9,135,42z"/>
		<path d="M98,90c0.2,1.2-0.4,2.4,1.6,3.3c2.9,1.4,3.1,4.8,1.4,7.8c-1.5,2.7-3.8,3.3-7.2,2.2c-0.9-0.3-1.9-0.2-2.8-0.3
			c0-0.8,0.3-1.9-0.1-2.4c-1.3-1.6-0.9-3-0.3-4.8c0.7-2.2,2.5-3.6,3.9-3.5C96.6,92.3,96.6,90.3,98,90z"/>
		<path d="M91,103c-0.3,0.3-0.7,0.7-1,1C90.3,103.7,90.7,103.3,91,103z"/>
	</symbol>

	<symbol id="rareloop" viewBox="0 0 101 27">
                    <path d="M3.93116197,20.3636471 C3.41408451,20.3636471 2.92605634,20.3004706 2.48098592,20.1757059 C2.04524648,20.0535882 1.65704225,19.8502941 1.32693662,19.5712941 C0.999295775,19.2951176 0.736091549,18.9160588 0.544542254,18.4445294 C0.350704225,17.9684118 0.252464789,17.3643529 0.252464789,16.6487647 L0.252464789,0.120882353 C0.411443662,0.0968823529 0.584507042,0.0778235294 0.768838028,0.0640588235 C1.02007042,0.0457058824 1.23820423,0.0367058824 1.43521127,0.0367058824 C1.62940141,0.0367058824 1.85369718,0.0458823529 2.10176056,0.0640588235 C2.28556338,0.0778235294 2.4584507,0.0968823529 2.61778169,0.121058824 L2.61778169,16.0372941 C2.61778169,16.5797647 2.66584507,16.9971176 2.76443662,17.313 C2.86496479,17.6357647 3.0056338,17.8891765 3.18239437,18.0661765 C3.36302817,18.2474118 3.5790493,18.3663529 3.82447183,18.4194706 C4.04665493,18.4681765 4.28802817,18.4930588 4.54102113,18.4930588 C4.71320423,18.4930588 4.90950704,18.4833529 5.12464789,18.4644706 C5.26954225,18.4521176 5.40158451,18.435 5.51954225,18.4136471 C5.64630282,18.9637059 5.71461268,19.5598235 5.72271127,20.19 C5.50193662,20.2556471 5.24066901,20.3001176 4.94366197,20.3225294 C4.58028169,20.3497059 4.23961268,20.3636471 3.93116197,20.3636471" id="Fill-5"></path>
                    <path d="M38.5200704,26.8399412 C38.3223592,26.8399412 38.1044014,26.8311176 37.8535211,26.8127647 C37.6691901,26.7988235 37.4963028,26.7797647 37.3373239,26.7557647 L37.3373239,6.23329412 C37.4711268,6.21017647 37.6080986,6.192 37.7464789,6.17876471 C37.9373239,6.16076471 38.1325704,6.15176471 38.3258803,6.15176471 C38.5008803,6.15176471 38.6915493,6.16094118 38.8926056,6.17876471 C39.0498239,6.19323529 39.203169,6.21352941 39.35,6.23947059 C39.3588028,6.28429412 39.3705986,6.35364706 39.3855634,6.45882353 C39.4133803,6.65241176 39.4410211,6.85994118 39.468662,7.08123529 C39.4961268,7.30411765 39.5241197,7.51817647 39.5517606,7.72235294 C39.5850352,7.96729412 39.5920775,8.05623529 39.5920775,8.08782353 L39.5920775,8.70423529 L39.9174296,8.18117647 C40.0945423,7.89635294 40.3116197,7.61558824 40.5621479,7.34647059 C40.8082746,7.08176471 41.1086268,6.83947059 41.4547535,6.62576471 C41.8001761,6.41294118 42.1959507,6.24176471 42.6309859,6.11717647 C43.0669014,5.99258824 43.5591549,5.92941176 44.0940141,5.92941176 C44.8998239,5.92941176 45.6573944,6.06564706 46.3452465,6.33423529 C47.0271127,6.60070588 47.6198944,7.01929412 48.1068662,7.57835294 C48.596831,8.14094118 48.9862676,8.86817647 49.2642606,9.73976471 C49.5440141,10.6178824 49.6859155,11.6705294 49.6859155,12.8685882 C49.6859155,15.2558824 49.0353873,17.1458824 47.7521127,18.4861765 C46.4709507,19.8241765 44.6242958,20.5027059 42.2637324,20.5027059 C41.8663732,20.5027059 41.4542254,20.475 41.0389085,20.4206471 C40.6257042,20.3668235 40.2614437,20.2939412 39.9559859,20.2041176 L39.7304577,20.1377647 L39.7304577,26.754 C39.5572183,26.7788824 39.3748239,26.7986471 39.1862676,26.8127647 C38.9394366,26.8309412 38.7149648,26.8399412 38.5200704,26.8399412 L38.5200704,26.8399412 Z M43.4838028,7.96694118 C43.0015845,7.96694118 42.5322183,8.05517647 42.0887324,8.22917647 C41.6424296,8.40405882 41.2397887,8.66982353 40.8915493,9.01923529 C40.5429577,9.36811765 40.259331,9.81352941 40.0480634,10.3431176 C39.8373239,10.8709412 39.7304577,11.5055294 39.7304577,12.2292353 L39.7304577,18.1337647 L39.8455986,18.1762941 C40.2056338,18.3095294 40.581162,18.4060588 40.9619718,18.4632353 C41.3387324,18.5198824 41.8327465,18.5484706 42.4302817,18.5484706 C43.1146127,18.5484706 43.7514085,18.4371176 44.3234155,18.2172353 C44.9005282,17.9957647 45.4038732,17.6479412 45.8193662,17.1834706 C46.2306338,16.7232353 46.5598592,16.137 46.7978873,15.4413529 C47.0339789,14.7492353 47.1538732,13.9210588 47.1538732,12.9797647 C47.1538732,11.4714706 46.8697183,10.2522353 46.3089789,9.35594118 C45.7315141,8.43423529 44.7809859,7.96694118 43.4838028,7.96694118 L43.4838028,7.96694118 Z" id="Fill-6"></path>
                    <path d="M28.5329225,20.8542353 C27.9899648,20.8542353 27.4334507,20.7645882 26.8785211,20.5879412 C26.3190141,20.4098824 25.7306338,20.1183529 25.1301056,19.7211176 C24.5228873,19.3201765 23.8721831,18.7798235 23.1961268,18.1150588 C22.7165493,17.6445882 22.2133803,17.0904706 21.6987676,16.4664706 L23.0169014,14.7751765 C23.4987676,15.3864706 23.9413732,15.9097059 24.3352113,16.3328824 C24.9147887,16.9568824 25.4551056,17.4550588 25.9410211,17.8129412 C26.4339789,18.1764706 26.9001761,18.4205294 27.3269366,18.5378824 C27.7461268,18.6543529 28.1804577,18.7134706 28.6172535,18.7134706 C29.9283451,18.7134706 31.0149648,18.246 31.846831,17.3239412 C32.6744718,16.4071765 33.0941901,15.1941176 33.0941901,13.7186471 C33.0941901,12.2422941 32.6663732,11.0424706 31.8228873,10.1525294 C30.9765845,9.26064706 29.9123239,8.80870588 28.6596831,8.80870588 C28.1992958,8.80870588 27.7461268,8.85988235 27.3123239,8.961 C26.8691901,9.06511765 26.3947183,9.29488235 25.9014085,9.64394118 C25.4153169,9.98752941 24.8737676,10.4865882 24.2919014,11.1275294 C24.0103873,11.4370588 23.7,11.8087059 23.3695423,12.2317059 C22.9573944,12.7826471 21.7477113,14.397 21.5709507,14.6212941 L20.4871479,15.9968824 C20.2876761,16.2578824 20.0897887,16.5093529 19.896831,16.746 L19.8133803,16.8520588 L19.7429577,16.9325294 C19.2857394,17.4836471 18.8792254,17.9327647 18.5005282,18.3054706 C17.8117958,18.9820588 17.1554577,19.5141176 16.5498239,19.8868235 C15.9494718,20.2561765 15.3635563,20.5120588 14.8082746,20.6475882 C14.2489437,20.7847059 13.7024648,20.8542353 13.184507,20.8542353 C12.2558099,20.8542353 11.3774648,20.6878235 10.5735915,20.3599412 C9.76954225,20.0320588 9.05140845,19.5545294 8.43873239,18.9404118 C7.82517606,18.3255882 7.3346831,17.5702941 6.98045775,16.6957059 C6.62552817,15.8202353 6.44542254,14.8328824 6.44542254,13.7606471 C6.44542254,12.7196471 6.63221831,11.7472941 7.00070423,10.8707647 C7.36954225,9.99458824 7.87482394,9.23135294 8.50193662,8.60258824 C9.12922535,7.97435294 9.86232394,7.48235294 10.6801056,7.14017647 C11.4980634,6.79870588 12.3830986,6.62558824 13.3109155,6.62558824 C14.3948944,6.62558824 15.5397887,7.02105882 16.7135563,7.80070588 C17.7227113,8.47164706 18.8714789,9.55694118 20.1292254,11.028 L18.7852113,12.7473529 C18.3079225,12.1422353 17.8651408,11.6186471 17.4667254,11.1892941 C16.884331,10.5635294 16.3433099,10.0720588 15.8584507,9.72847059 C15.3661972,9.38082353 14.9028169,9.138 14.4808099,9.00670588 C14.0580986,8.87523529 13.6360915,8.80870588 13.2269366,8.80870588 C11.9167254,8.80870588 10.8304577,9.26841176 9.99806338,10.1756471 C9.16971831,11.079 8.74964789,12.2853529 8.74964789,13.7606471 C8.74964789,15.2387647 9.17711268,16.4452941 10.0200704,17.3470588 C10.8658451,18.2537647 11.9306338,18.7134706 13.184507,18.7134706 C13.6475352,18.7134706 14.1008803,18.6621176 14.5320423,18.5606471 C14.9716549,18.4582941 15.4455986,18.2362941 15.9397887,17.9011765 C16.4262324,17.5715294 16.9621479,17.0782941 17.5325704,16.4350588 C17.8323944,16.0972941 18.168838,15.6804706 18.5325704,15.1962353 C18.9554577,14.6175882 20.0815141,13.0805294 20.2286972,12.8977059 C20.3602113,12.7344706 21.2135563,11.6528824 21.6693662,11.0751176 L21.8375,10.8622941 L21.893662,10.7904706 L21.9577465,10.7156471 C22.4360915,10.1320588 22.8876761,9.63529412 23.2998239,9.23929412 C23.9875,8.577 24.6515845,8.04423529 25.2739437,7.65547059 C25.8883803,7.27235294 26.4825704,7.002 27.0397887,6.852 C27.5994718,6.70182353 28.1443662,6.62558824 28.6596831,6.62558824 C29.5866197,6.62558824 30.4642606,6.79870588 31.268662,7.14 C32.0739437,7.48252941 32.7929577,7.96747059 33.4052817,8.58141176 C34.0177817,9.19517647 34.5084507,9.94394118 34.8637324,10.8065294 C35.218662,11.6692941 35.3987676,12.6492353 35.3987676,13.7186471 C35.3987676,14.7885882 35.2119718,15.7676471 34.843662,16.6288235 C34.4748239,17.4914118 33.9697183,18.2477647 33.3422535,18.8770588 C32.7146127,19.506 31.9816901,19.998 31.1639085,20.3396471 C30.346831,20.6811176 29.4617958,20.8542353 28.5329225,20.8542353" id="Fill-7" class="infinity"></path>
                    <path d="M12.5873239,20.2524706 C12.1237676,20.2524706 11.6536972,20.2275882 11.1889085,20.1788824 L4.93591549,11.1042353 L4.97640845,11.0941765 C5.47940141,10.9635882 6.01830986,10.7835882 6.57975352,10.5587647 C7.14683099,10.3312941 7.67852113,10.0286471 8.16038732,9.65929412 C8.64647887,9.28694118 9.05739437,8.83129412 9.38169014,8.30558824 C9.71197183,7.77 9.87940141,7.11705882 9.87940141,6.36441176 C9.87940141,4.98158824 9.46126761,3.93511765 8.63679577,3.25394118 C7.82200704,2.58176471 6.71602113,2.241 5.34982394,2.241 C5.03679577,2.241 4.73890845,2.25035294 4.46426056,2.26923529 C4.19647887,2.28776471 3.89084507,2.316 3.5556338,2.35305882 L3.39894366,2.37052941 L3.39894366,20.1838235 C3.23943662,20.1975882 3.06742958,20.2113529 2.88239437,20.2251176 C2.6346831,20.2432941 2.40105634,20.2524706 2.18855634,20.2524706 C1.97447183,20.2524706 1.73397887,20.2478824 1.47359155,20.2385294 C1.27975352,20.2316471 1.09507042,20.2164706 0.922535211,20.1935294 L0.922535211,0.493764706 C1.26795775,0.461647059 1.58573944,0.429529412 1.87535211,0.397058824 C2.21109155,0.359647059 2.54084507,0.327176471 2.85510563,0.300176471 C3.1693662,0.273 3.50809859,0.249882353 3.86161972,0.231 C4.21320423,0.212823529 4.60211268,0.203470588 5.01690141,0.203470588 C5.94190141,0.203470588 6.87271127,0.295764706 7.78327465,0.477882353 C8.68116197,0.658058824 9.49119718,0.977294118 10.190669,1.42641176 C10.8839789,1.87182353 11.4570423,2.48276471 11.8940141,3.24211765 C12.3292254,3.99935294 12.5498239,4.97505882 12.5498239,6.14205882 C12.5498239,6.83805882 12.4330986,7.47952941 12.2022887,8.04917647 C11.9693662,8.62394118 11.6700704,9.14223529 11.3128521,9.58958824 C10.9542254,10.0388824 10.5410211,10.4347059 10.0853873,10.7661176 C9.625,11.1010588 9.17165493,11.3812941 8.73732394,11.5988824 L8.22323944,11.8565294 L13.9640845,20.199 C13.5471831,20.2346471 13.0855634,20.2524706 12.5873239,20.2524706" id="Fill-1"></path>
                    <path d="M20.656338,20.5027059 C19.7677817,20.5027059 18.9552817,20.4199412 18.2413732,20.2568824 C17.5373239,20.0961176 16.9338028,19.8347647 16.4478873,19.4802353 C15.965669,19.1290588 15.5876761,18.6742941 15.3242958,18.1284706 C15.0598592,17.5810588 14.9258803,16.9055294 14.9258803,16.1205882 C14.9258803,15.357 15.0820423,14.6791765 15.3901408,14.1058235 C15.6987676,13.5308824 16.1242958,13.0459412 16.6549296,12.6645882 C17.1901408,12.2802353 17.8146127,11.9901176 18.5114437,11.802 C19.2142606,11.6124706 19.9637324,11.5162941 20.7396127,11.5162941 C21.3242958,11.5162941 21.8098592,11.5300588 22.1823944,11.5575882 C22.5533451,11.5847647 22.8713028,11.6170588 23.1272887,11.6535882 L23.328169,11.682 L23.328169,10.9507059 C23.328169,9.80488235 23.025,8.991 22.4272887,8.53147059 C21.843838,8.08305882 20.9961268,7.85576471 19.9077465,7.85576471 C19.2544014,7.85576471 18.6327465,7.908 18.0600352,8.01141176 C17.5394366,8.10547059 17.0244718,8.22847059 16.5269366,8.37741176 C16.2538732,7.85170588 16.1077465,7.22841176 16.0920775,6.52111765 C16.6769366,6.33952941 17.3248239,6.19623529 18.0197183,6.09423529 C18.765493,5.98482353 19.4940141,5.92941176 20.1850352,5.92941176 C21.9808099,5.92941176 23.3600352,6.34023529 24.2839789,7.15041176 C25.2008803,7.95511765 25.6658451,9.27105882 25.6658451,11.0618824 L25.6658451,19.8432353 C25.05,19.9808824 24.3073944,20.1238235 23.4552817,20.2688824 C22.5433099,20.424 21.6015845,20.5027059 20.656338,20.5027059 L20.656338,20.5027059 Z M21.0169014,13.3035882 C19.8387324,13.3035882 18.9227113,13.5296471 18.2945423,13.9752353 C17.6473592,14.4347647 17.3190141,15.1378235 17.3190141,16.065 C17.3190141,16.6537059 17.431338,17.1254118 17.6524648,17.4674118 C17.8702465,17.8055294 18.1482394,18.0684706 18.4783451,18.249 C18.802993,18.4265294 19.1660211,18.5364706 19.5573944,18.5754706 C19.9283451,18.6130588 20.2887324,18.6319412 20.6286972,18.6319412 C21.0591549,18.6319412 21.5084507,18.6082941 21.9637324,18.5615294 C22.4235915,18.5147647 22.8385563,18.4429412 23.197007,18.3481765 L23.328169,18.3134118 L23.328169,13.4922353 L23.1751761,13.4719412 C22.8989437,13.4350588 22.5417254,13.3974706 22.1137324,13.3598824 C21.6839789,13.3226471 21.3151408,13.3035882 21.0169014,13.3035882 L21.0169014,13.3035882 Z" id="Fill-2"></path>
                    <path d="M29.9737676,20.2801765 C29.7771127,20.2801765 29.5591549,20.2713529 29.3070423,20.253 C29.118838,20.2388824 28.9364437,20.2191176 28.7632042,20.1942353 L28.7632042,6.23523529 C28.9098592,6.21123529 29.0519366,6.19217647 29.1871479,6.17858824 C29.3679577,6.16076471 29.5580986,6.15176471 29.7519366,6.15176471 C29.9452465,6.15176471 30.1452465,6.16094118 30.3463028,6.17876471 C30.4961268,6.19252941 30.6366197,6.21176471 30.7658451,6.23576471 C30.8130282,6.49270588 30.8607394,6.81829412 30.9080986,7.20582353 C30.9625,7.65105882 30.9901408,8.03205882 30.9901408,8.33788235 L30.9901408,8.95923529 L31.3158451,8.43070588 C31.690493,7.82311765 32.1926056,7.28823529 32.8084507,6.84088235 C33.4130282,6.402 34.2040493,6.17947059 35.159331,6.17947059 C35.3,6.17947059 35.4505282,6.18405882 35.6066901,6.19323529 C35.7042254,6.19905882 35.7927817,6.20682353 35.8714789,6.21617647 C35.8948944,6.34041176 35.9135563,6.47047059 35.9269366,6.60441176 C35.9447183,6.78582353 35.9538732,6.97641176 35.9538732,7.17052941 C35.9538732,7.38564706 35.9401408,7.61258824 35.9133803,7.84517647 C35.893838,8.01547059 35.8711268,8.18505882 35.8459507,8.35164706 C35.7433099,8.33594118 35.6387324,8.32817647 35.5336268,8.32817647 L35.159331,8.32817647 C34.6448944,8.32817647 34.147007,8.40088235 33.6795775,8.54452941 C33.2022887,8.69082353 32.7677817,8.95288235 32.3882042,9.32329412 C32.0091549,9.69370588 31.7052817,10.203 31.4852113,10.8370588 C31.2670775,11.4638824 31.1565141,12.2784706 31.1565141,13.2577059 L31.1565141,20.1958235 C30.9971831,20.22 30.8241197,20.2392353 30.6399648,20.253 C30.3919014,20.271 30.1676056,20.2801765 29.9737676,20.2801765" id="Fill-3"></path>
                    <path d="M43.5892606,20.5027059 C42.3230634,20.5027059 41.2251761,20.3242941 40.3255282,19.9727647 C39.4304577,19.6228235 38.6829225,19.1237647 38.1036972,18.4893529 C37.5234155,17.8544118 37.0933099,17.0915294 36.8248239,16.2213529 C36.5540493,15.3439412 36.4167254,14.3654118 36.4167254,13.3132941 C36.4167254,12.2784706 36.5496479,11.2992353 36.8117958,10.4027647 C37.0711268,9.51388235 37.4753521,8.73052941 38.0128521,8.07458824 C38.5480634,7.422 39.2320423,6.89558824 40.0455986,6.51017647 C40.859331,6.12476471 41.8369718,5.92941176 42.9514085,5.92941176 C43.9014085,5.92941176 44.7447183,6.09247059 45.4580986,6.41417647 C46.1705986,6.73570588 46.775,7.18305882 47.2545775,7.74388235 C47.7357394,8.30647059 48.1068662,8.98747059 48.3577465,9.76782353 C48.6096831,10.5531176 48.7373239,11.4187059 48.7373239,12.3404118 C48.7373239,12.5904706 48.728169,12.8625882 48.7100352,13.1491765 C48.6961268,13.3630588 48.6822183,13.5532941 48.668662,13.7205882 L38.9721831,13.7205882 L38.9764085,13.9011176 C39.0140845,15.4994118 39.4387324,16.6914706 40.2382042,17.4444706 C41.0350352,18.1955294 42.218662,18.5763529 43.7556338,18.5763529 C45.0286972,18.5763529 46.2580986,18.3578824 47.4126761,17.9269412 C47.521831,18.1628824 47.6144366,18.4420588 47.6883803,18.7597059 C47.7679577,19.1041765 47.8200704,19.449 47.8429577,19.7860588 C47.2794014,20.0151176 46.6549296,20.1915882 45.9848592,20.3108824 C45.2663732,20.4381176 44.4603873,20.5027059 43.5892606,20.5027059 L43.5892606,20.5027059 Z M42.8681338,7.77229412 C41.6929577,7.77229412 40.7760563,8.13847059 40.1431338,8.86058824 C39.5202465,9.57141176 39.1373239,10.5675882 39.0049296,11.8215882 L38.984331,12.0165882 L46.371831,12.0165882 L46.371831,11.8401176 C46.371831,11.3068235 46.2994718,10.7897647 46.1568662,10.3032353 C46.0130282,9.813 45.7980634,9.37782353 45.5177817,9.00917647 C45.234331,8.63735294 44.8691901,8.33523529 44.4320423,8.11129412 C43.9920775,7.88629412 43.4661972,7.77229412 42.8681338,7.77229412 L42.8681338,7.77229412 Z" id="Fill-4"></path>
	</symbol>
</svg>

